<?xml version="1.0" encoding="UTF-8"?>
<svg xmlns="http://www.w3.org/2000/svg" xmlns:xlink="http://www.w3.org/1999/xlink" width="32px" height="32px" viewBox="0 0 32 32" version="1.1">
<g id="surface1">
<path style=" stroke:none;fill-rule:evenodd;fill:rgb(99.607843%,99.607843%,96.862745%);fill-opacity:1;" d="M -0.015625 -0.015625 C 10.652344 -0.015625 21.316406 -0.015625 31.984375 -0.015625 C 31.984375 10.652344 31.984375 21.316406 31.984375 31.984375 C 21.316406 31.984375 10.652344 31.984375 -0.015625 31.984375 C -0.015625 21.316406 -0.015625 10.652344 -0.015625 -0.015625 Z M -0.015625 -0.015625 "/>
<path style=" stroke:none;fill-rule:evenodd;fill:rgb(9.411765%,6.27451%,0.392157%);fill-opacity:1;" d="M 25.078125 13.890625 C 25.050781 13.894531 25.03125 13.882812 25.015625 13.859375 C 25.136719 13.503906 25.214844 13.140625 25.25 12.765625 C 25.269531 12.746094 25.292969 12.722656 25.3125 12.703125 C 25.355469 12.734375 25.402344 12.742188 25.453125 12.71875 C 25.375 12.683594 25.375 12.640625 25.453125 12.59375 C 25.390625 12.5625 25.335938 12.527344 25.28125 12.484375 C 25.292969 12.027344 25.242188 11.582031 25.125 11.140625 C 25.105469 11.179688 25.089844 11.179688 25.078125 11.140625 C 25.09375 11.101562 25.105469 11.066406 25.109375 11.03125 C 25.007812 11 24.910156 10.964844 24.8125 10.921875 C 24.753906 10.9375 24.75 10.964844 24.796875 11 C 24.722656 11.039062 24.722656 11.070312 24.796875 11.09375 C 24.785156 11.105469 24.777344 11.113281 24.765625 11.125 C 24.800781 11.214844 24.839844 11.296875 24.890625 11.375 C 24.890625 11.496094 24.882812 11.617188 24.859375 11.734375 C 24.863281 11.6875 24.851562 11.648438 24.828125 11.609375 C 24.828125 11.457031 24.796875 11.3125 24.734375 11.171875 C 24.6875 11.140625 24.632812 11.132812 24.578125 11.140625 C 24.054688 11.125 23.535156 11.152344 23.015625 11.21875 C 22.507812 11.320312 22.007812 11.445312 21.515625 11.59375 C 21.429688 11.5 21.441406 11.417969 21.546875 11.34375 C 22.363281 11.035156 23.207031 10.875 24.078125 10.859375 C 24.277344 10.871094 24.457031 10.859375 24.609375 10.828125 C 24.425781 10.316406 24.191406 9.824219 23.90625 9.359375 C 23.835938 9.207031 23.773438 9.050781 23.71875 8.890625 C 23.589844 8.234375 23.453125 7.578125 23.3125 6.921875 C 23.195312 6.535156 23.035156 6.167969 22.828125 5.828125 C 22.277344 4.820312 21.507812 4.027344 20.515625 3.453125 C 19.675781 2.886719 18.75 2.539062 17.734375 2.40625 C 15.339844 2.0625 13.089844 2.480469 10.984375 3.65625 C 10.90625 3.710938 10.832031 3.765625 10.765625 3.828125 C 10.519531 3.972656 10.296875 4.152344 10.09375 4.359375 C 10.085938 4.320312 10.070312 4.289062 10.046875 4.265625 C 9.957031 4.003906 9.800781 3.789062 9.578125 3.625 C 8.976562 3.210938 8.363281 3.191406 7.734375 3.5625 C 7.519531 3.726562 7.351562 3.929688 7.234375 4.171875 C 6.976562 4.707031 6.992188 5.238281 7.28125 5.765625 C 7.589844 6.234375 8.023438 6.417969 8.578125 6.3125 C 8.453125 6.539062 8.335938 6.773438 8.234375 7.015625 C 8.207031 7.027344 8.199219 7.046875 8.203125 7.078125 C 8.175781 7.054688 8.164062 7.023438 8.171875 6.984375 C 8.015625 6.964844 8.027344 6.9375 8.203125 6.90625 C 8.160156 6.890625 8.121094 6.867188 8.09375 6.828125 C 8.0625 6.890625 8.023438 6.941406 7.96875 6.984375 C 7.960938 6.945312 7.945312 6.910156 7.921875 6.875 C 7.933594 6.863281 7.941406 6.855469 7.953125 6.84375 C 7.925781 6.835938 7.902344 6.820312 7.890625 6.796875 C 7.886719 6.765625 7.898438 6.738281 7.921875 6.71875 C 7.253906 6.488281 6.851562 6.023438 6.71875 5.328125 C 6.5625 4.152344 7.039062 3.355469 8.140625 2.9375 C 8.996094 2.78125 9.691406 3.046875 10.21875 3.734375 C 10.988281 3.148438 11.835938 2.707031 12.765625 2.40625 C 14.863281 1.757812 16.964844 1.726562 19.078125 2.3125 C 19.863281 2.59375 20.589844 2.984375 21.25 3.484375 C 21.847656 2.824219 22.550781 2.683594 23.359375 3.0625 C 23.949219 3.511719 24.226562 4.109375 24.1875 4.859375 C 24.160156 5.441406 23.90625 5.882812 23.421875 6.1875 C 23.539062 6.425781 23.636719 6.667969 23.71875 6.921875 C 23.84375 7.417969 23.945312 7.917969 24.03125 8.421875 C 24.078125 8.589844 24.128906 8.757812 24.1875 8.921875 C 24.398438 9.355469 24.617188 9.78125 24.84375 10.203125 C 24.9375 10.417969 25.019531 10.636719 25.09375 10.859375 C 26.035156 11.007812 26.925781 11.304688 27.765625 11.75 C 27.863281 11.816406 27.957031 11.886719 28.046875 11.96875 C 27.144531 11.578125 26.199219 11.3125 25.21875 11.171875 C 25.242188 11.378906 25.273438 11.585938 25.3125 11.796875 C 25.328125 12.027344 25.332031 12.253906 25.328125 12.484375 C 26.285156 12.84375 27.125 13.386719 27.84375 14.109375 C 27.917969 14.199219 27.984375 14.292969 28.046875 14.390625 C 27.238281 13.71875 26.332031 13.175781 25.328125 12.765625 C 25.257812 13.144531 25.171875 13.519531 25.078125 13.890625 Z M 25.078125 13.890625 "/>
<path style=" stroke:none;fill-rule:evenodd;fill:rgb(58.039218%,30.980393%,9.803922%);fill-opacity:1;" d="M 23.515625 3.734375 C 23.636719 3.851562 23.710938 4 23.734375 4.171875 C 23.6875 4.101562 23.640625 4.027344 23.59375 3.953125 C 23.558594 4.023438 23.515625 4.09375 23.46875 4.171875 C 23.390625 4.148438 23.3125 4.152344 23.234375 4.1875 C 23.210938 4.207031 23.199219 4.234375 23.203125 4.265625 C 22.855469 4.125 22.589844 4.21875 22.40625 4.546875 C 22.1875 4.289062 21.953125 4.050781 21.703125 3.828125 C 21.972656 3.546875 22.304688 3.410156 22.703125 3.421875 C 23.019531 3.421875 23.289062 3.527344 23.515625 3.734375 Z M 23.515625 3.734375 "/>
<path style=" stroke:none;fill-rule:evenodd;fill:rgb(80.000001%,49.411765%,22.352941%);fill-opacity:1;" d="M 23.515625 3.734375 C 23.289062 3.527344 23.019531 3.421875 22.703125 3.421875 C 22.304688 3.410156 21.972656 3.546875 21.703125 3.828125 C 21.648438 3.789062 21.59375 3.742188 21.546875 3.6875 C 22.058594 3.179688 22.632812 3.097656 23.265625 3.4375 C 23.367188 3.523438 23.453125 3.621094 23.515625 3.734375 Z M 23.515625 3.734375 "/>
<path style=" stroke:none;fill-rule:evenodd;fill:rgb(78.431374%,48.235294%,21.176471%);fill-opacity:1;" d="M 10.046875 4.265625 C 10.050781 4.308594 10.046875 4.351562 10.03125 4.390625 C 9.28125 3.382812 8.402344 3.25 7.390625 4 C 7.34375 4.050781 7.304688 4.105469 7.28125 4.171875 C 7.257812 4.210938 7.242188 4.210938 7.234375 4.171875 C 7.351562 3.929688 7.519531 3.726562 7.734375 3.5625 C 8.363281 3.191406 8.976562 3.210938 9.578125 3.625 C 9.800781 3.789062 9.957031 4.003906 10.046875 4.265625 Z M 10.046875 4.265625 "/>
<path style=" stroke:none;fill-rule:evenodd;fill:rgb(77.64706%,47.058824%,20.784314%);fill-opacity:1;" d="M 20.515625 3.453125 C 18.15625 2.445312 15.726562 2.265625 13.234375 2.90625 C 12.734375 3.039062 12.238281 3.1875 11.75 3.359375 C 11.726562 3.355469 11.703125 3.34375 11.6875 3.328125 C 11.371094 3.484375 11.0625 3.648438 10.765625 3.828125 C 10.832031 3.765625 10.90625 3.710938 10.984375 3.65625 C 13.089844 2.480469 15.339844 2.0625 17.734375 2.40625 C 18.75 2.539062 19.675781 2.886719 20.515625 3.453125 Z M 20.515625 3.453125 "/>
<path style=" stroke:none;fill-rule:evenodd;fill:rgb(52.549022%,26.666668%,6.666667%);fill-opacity:1;" d="M 23.734375 4.171875 C 23.910156 4.691406 23.84375 5.183594 23.53125 5.640625 C 23.464844 5.722656 23.386719 5.785156 23.296875 5.828125 C 23.078125 5.457031 22.835938 5.097656 22.578125 4.75 C 22.703125 4.476562 22.910156 4.3125 23.203125 4.265625 C 23.199219 4.234375 23.210938 4.207031 23.234375 4.1875 C 23.3125 4.152344 23.390625 4.148438 23.46875 4.171875 C 23.515625 4.09375 23.558594 4.023438 23.59375 3.953125 C 23.640625 4.027344 23.6875 4.101562 23.734375 4.171875 Z M 23.734375 4.171875 "/>
<path style=" stroke:none;fill-rule:evenodd;fill:rgb(58.039218%,30.980393%,9.803922%);fill-opacity:1;" d="M 20.515625 3.453125 C 21.507812 4.027344 22.277344 4.820312 22.828125 5.828125 C 22.976562 6.140625 23.105469 6.464844 23.21875 6.796875 C 23.21875 7.414062 23.25 8.027344 23.3125 8.640625 C 23.476562 9.078125 23.695312 9.484375 23.96875 9.859375 C 24.078125 10.152344 24.214844 10.445312 24.375 10.734375 C 24.480469 10.773438 24.476562 10.800781 24.359375 10.8125 C 24.441406 10.828125 24.527344 10.832031 24.609375 10.828125 C 24.457031 10.859375 24.277344 10.871094 24.078125 10.859375 C 24.078125 10.847656 24.078125 10.839844 24.078125 10.828125 C 24.152344 10.832031 24.226562 10.828125 24.296875 10.8125 C 23.925781 10.464844 23.488281 10.242188 22.984375 10.140625 C 22.328125 10.015625 21.734375 10.160156 21.203125 10.578125 C 20.835938 10.40625 20.472656 10.230469 20.109375 10.046875 C 19.957031 9.703125 19.707031 9.457031 19.359375 9.3125 C 18.402344 8.914062 17.433594 8.882812 16.453125 9.21875 C 16.070312 9.378906 15.757812 9.625 15.515625 9.953125 C 15.375 9.972656 15.242188 10.011719 15.109375 10.0625 C 14.644531 10.25 14.175781 10.425781 13.703125 10.59375 C 13.449219 10.675781 13.1875 10.707031 12.921875 10.6875 C 12.160156 10.128906 11.304688 9.886719 10.359375 9.96875 C 9.691406 10.074219 9.117188 10.359375 8.640625 10.828125 C 8.082031 10.851562 7.535156 10.9375 7 11.078125 C 6.996094 11.015625 7 10.953125 7.015625 10.890625 C 7.039062 10.925781 7.054688 10.96875 7.0625 11.015625 C 7.332031 10.941406 7.609375 10.882812 7.890625 10.84375 C 7.847656 10.832031 7.808594 10.824219 7.765625 10.8125 C 7.785156 10.800781 7.808594 10.792969 7.828125 10.78125 C 7.800781 10.769531 7.777344 10.75 7.765625 10.71875 C 7.804688 10.472656 7.847656 10.226562 7.890625 9.984375 C 7.878906 9.898438 7.867188 9.820312 7.859375 9.75 C 7.917969 9.695312 7.957031 9.628906 7.96875 9.546875 C 7.96875 9.394531 8 9.25 8.0625 9.109375 C 8.097656 9.101562 8.132812 9.09375 8.171875 9.078125 C 8.132812 9.054688 8.09375 9.039062 8.046875 9.03125 C 8.109375 8.796875 8.167969 8.554688 8.21875 8.296875 C 8.296875 8.253906 8.304688 8.21875 8.234375 8.1875 C 8.28125 8.058594 8.324219 7.929688 8.359375 7.796875 C 8.359375 7.75 8.335938 7.710938 8.296875 7.6875 C 8.328125 7.667969 8.351562 7.671875 8.375 7.703125 C 8.445312 7.554688 8.472656 7.40625 8.453125 7.25 C 8.511719 7.148438 8.5625 7.046875 8.609375 6.9375 C 8.589844 6.925781 8.566406 6.917969 8.546875 6.90625 C 8.613281 6.875 8.621094 6.835938 8.578125 6.78125 C 8.632812 6.742188 8.675781 6.691406 8.703125 6.625 C 8.746094 6.613281 8.785156 6.605469 8.828125 6.59375 C 8.734375 6.566406 8.726562 6.535156 8.796875 6.5 C 8.761719 6.484375 8.734375 6.457031 8.71875 6.421875 C 8.691406 6.449219 8.667969 6.480469 8.65625 6.515625 C 8.632812 6.488281 8.609375 6.46875 8.578125 6.453125 C 8.453125 6.640625 8.34375 6.839844 8.25 7.046875 C 8.238281 7.039062 8.230469 7.03125 8.234375 7.015625 C 8.335938 6.773438 8.453125 6.539062 8.578125 6.3125 C 8.023438 6.417969 7.589844 6.234375 7.28125 5.765625 C 6.992188 5.238281 6.976562 4.707031 7.234375 4.171875 C 7.242188 4.210938 7.257812 4.210938 7.28125 4.171875 C 7.304688 4.105469 7.34375 4.050781 7.390625 4 C 8.402344 3.25 9.28125 3.382812 10.03125 4.390625 C 10.046875 4.351562 10.050781 4.308594 10.046875 4.265625 C 10.070312 4.289062 10.085938 4.320312 10.09375 4.359375 C 10.296875 4.152344 10.519531 3.972656 10.765625 3.828125 C 11.0625 3.648438 11.371094 3.484375 11.6875 3.328125 C 11.703125 3.34375 11.726562 3.355469 11.75 3.359375 C 12.238281 3.1875 12.734375 3.039062 13.234375 2.90625 C 15.726562 2.265625 18.15625 2.445312 20.515625 3.453125 Z M 20.515625 3.453125 "/>
<path style=" stroke:none;fill-rule:evenodd;fill:rgb(97.647059%,97.254902%,94.901961%);fill-opacity:1;" d="M 14.546875 8.515625 C 14.582031 9.082031 14.386719 9.546875 13.953125 9.90625 C 13.824219 9.980469 13.6875 10.039062 13.546875 10.078125 C 14.039062 9.730469 14.234375 9.25 14.125 8.640625 C 14.039062 8.132812 13.742188 7.839844 13.234375 7.765625 C 12.839844 7.84375 12.574219 8.070312 12.4375 8.453125 C 12.238281 9.027344 12.347656 9.53125 12.765625 9.96875 C 12.832031 10.023438 12.902344 10.058594 12.984375 10.078125 C 12.976562 10.097656 12.960938 10.105469 12.9375 10.109375 C 12.652344 10.027344 12.398438 9.890625 12.171875 9.703125 C 11.835938 9.15625 11.769531 8.570312 11.96875 7.953125 C 12.292969 7.222656 12.839844 6.957031 13.609375 7.15625 C 14.15625 7.445312 14.46875 7.898438 14.546875 8.515625 Z M 14.546875 8.515625 "/>
<path style=" stroke:none;fill-rule:evenodd;fill:rgb(97.647059%,97.254902%,94.901961%);fill-opacity:1;" d="M 21.703125 9.421875 C 21.570312 9.601562 21.402344 9.742188 21.203125 9.84375 C 21.003906 9.898438 20.804688 9.902344 20.609375 9.859375 C 20.804688 9.835938 20.953125 9.742188 21.0625 9.578125 C 21.398438 8.941406 21.320312 8.363281 20.828125 7.84375 C 20.265625 7.574219 19.875 7.734375 19.65625 8.328125 C 19.597656 8.554688 19.59375 8.785156 19.640625 9.015625 C 19.5625 8.859375 19.523438 8.695312 19.515625 8.515625 C 19.496094 8.019531 19.671875 7.605469 20.046875 7.28125 C 20.78125 6.917969 21.328125 7.109375 21.6875 7.859375 C 21.910156 8.378906 21.914062 8.898438 21.703125 9.421875 Z M 21.703125 9.421875 "/>
<path style=" stroke:none;fill-rule:evenodd;fill:rgb(8.627451%,5.490196%,0.784314%);fill-opacity:1;" d="M 21.703125 9.421875 C 21.914062 8.898438 21.910156 8.378906 21.6875 7.859375 C 21.328125 7.109375 20.78125 6.917969 20.046875 7.28125 C 19.671875 7.605469 19.496094 8.019531 19.515625 8.515625 C 19.308594 7.839844 19.496094 7.304688 20.078125 6.90625 C 20.878906 6.605469 21.464844 6.839844 21.84375 7.609375 C 22.03125 8.105469 22.050781 8.605469 21.90625 9.109375 C 21.84375 9.222656 21.777344 9.324219 21.703125 9.421875 Z M 21.703125 9.421875 "/>
<path style=" stroke:none;fill-rule:evenodd;fill:rgb(51.764709%,26.666668%,6.27451%);fill-opacity:1;" d="M 7.921875 4.421875 C 8 4.457031 8.082031 4.484375 8.171875 4.5 C 8.238281 4.523438 8.289062 4.558594 8.328125 4.609375 C 8.519531 4.792969 8.65625 5.011719 8.734375 5.265625 C 8.679688 5.28125 8.632812 5.28125 8.59375 5.265625 C 8.550781 5.316406 8.542969 5.371094 8.578125 5.421875 C 8.601562 5.40625 8.617188 5.382812 8.625 5.359375 C 8.675781 5.453125 8.753906 5.492188 8.859375 5.484375 C 8.855469 5.527344 8.867188 5.570312 8.890625 5.609375 C 8.859375 5.636719 8.832031 5.667969 8.8125 5.703125 C 8.773438 5.664062 8.734375 5.667969 8.703125 5.71875 C 8.800781 5.777344 8.863281 5.761719 8.890625 5.671875 C 8.917969 5.710938 8.929688 5.75 8.921875 5.796875 C 8.828125 5.804688 8.742188 5.796875 8.65625 5.765625 C 8.636719 5.785156 8.613281 5.808594 8.59375 5.828125 C 8.492188 5.746094 8.390625 5.683594 8.296875 5.640625 C 8.273438 5.597656 8.246094 5.554688 8.21875 5.515625 C 8.207031 5.570312 8.1875 5.582031 8.15625 5.546875 C 8.097656 5.488281 8.105469 5.429688 8.171875 5.375 C 8.125 5.332031 8.078125 5.328125 8.03125 5.359375 C 8.078125 5.152344 8.042969 4.964844 7.921875 4.796875 C 7.941406 4.785156 7.964844 4.777344 7.984375 4.765625 C 7.960938 4.683594 7.914062 4.660156 7.84375 4.703125 C 7.761719 4.578125 7.785156 4.484375 7.921875 4.421875 Z M 7.921875 4.421875 "/>
<path style=" stroke:none;fill-rule:evenodd;fill:rgb(9.411765%,6.27451%,0%);fill-opacity:1;" d="M 20.171875 4.671875 C 20.988281 4.671875 21.585938 5.023438 21.96875 5.734375 C 22.066406 5.933594 22.097656 6.140625 22.0625 6.359375 C 21.484375 5.476562 20.664062 5.117188 19.609375 5.28125 C 19.527344 5.171875 19.535156 5.0625 19.625 4.953125 C 19.773438 4.789062 19.957031 4.695312 20.171875 4.671875 Z M 20.171875 4.671875 "/>
<path style=" stroke:none;fill-rule:evenodd;fill:rgb(9.411765%,6.27451%,0%);fill-opacity:1;" d="M 12.890625 4.671875 C 13.191406 4.644531 13.484375 4.683594 13.765625 4.78125 C 13.980469 4.898438 14.042969 5.0625 13.953125 5.28125 C 12.855469 5.191406 11.929688 5.539062 11.171875 6.328125 C 11.15625 6.105469 11.210938 5.894531 11.34375 5.703125 C 11.722656 5.152344 12.238281 4.808594 12.890625 4.671875 Z M 12.890625 4.671875 "/>
<path style=" stroke:none;fill-rule:evenodd;fill:rgb(9.019608%,5.490196%,0%);fill-opacity:1;" d="M 8.328125 4.609375 C 8.289062 4.558594 8.238281 4.523438 8.171875 4.5 C 8.082031 4.484375 8 4.457031 7.921875 4.421875 C 8.109375 4.34375 8.296875 4.347656 8.484375 4.4375 C 9.019531 4.761719 9.195312 5.214844 9.015625 5.796875 C 8.90625 5.429688 8.742188 5.085938 8.53125 4.765625 C 8.476562 4.695312 8.40625 4.640625 8.328125 4.609375 Z M 8.328125 4.609375 "/>
<path style=" stroke:none;fill-rule:evenodd;fill:rgb(8.627451%,5.490196%,0.392157%);fill-opacity:1;" d="M 14.546875 8.515625 C 14.46875 7.898438 14.15625 7.445312 13.609375 7.15625 C 12.839844 6.957031 12.292969 7.222656 11.96875 7.953125 C 11.769531 8.570312 11.835938 9.15625 12.171875 9.703125 C 11.878906 9.464844 11.714844 9.152344 11.6875 8.765625 C 11.574219 8.035156 11.808594 7.445312 12.390625 7 C 13.085938 6.628906 13.707031 6.730469 14.25 7.296875 C 14.507812 7.667969 14.605469 8.074219 14.546875 8.515625 Z M 14.546875 8.515625 "/>
<path style=" stroke:none;fill-rule:evenodd;fill:rgb(74.117649%,43.921569%,18.431373%);fill-opacity:1;" d="M 22.828125 5.828125 C 23.035156 6.167969 23.195312 6.535156 23.3125 6.921875 C 23.453125 7.578125 23.589844 8.234375 23.71875 8.890625 C 23.773438 9.050781 23.835938 9.207031 23.90625 9.359375 C 24.191406 9.824219 24.425781 10.316406 24.609375 10.828125 C 24.527344 10.832031 24.441406 10.828125 24.359375 10.8125 C 24.476562 10.800781 24.480469 10.773438 24.375 10.734375 C 24.214844 10.445312 24.078125 10.152344 23.96875 9.859375 C 23.695312 9.484375 23.476562 9.078125 23.3125 8.640625 C 23.25 8.027344 23.21875 7.414062 23.21875 6.796875 C 23.105469 6.464844 22.976562 6.140625 22.828125 5.828125 Z M 22.828125 5.828125 "/>
<path style=" stroke:none;fill-rule:evenodd;fill:rgb(9.803922%,6.666667%,0%);fill-opacity:1;" d="M 20.609375 9.859375 C 20.261719 9.84375 19.996094 9.6875 19.8125 9.390625 C 19.746094 9.265625 19.6875 9.140625 19.640625 9.015625 C 19.59375 8.785156 19.597656 8.554688 19.65625 8.328125 C 19.875 7.734375 20.265625 7.574219 20.828125 7.84375 C 21.320312 8.363281 21.398438 8.941406 21.0625 9.578125 C 20.953125 9.742188 20.804688 9.835938 20.609375 9.859375 Z M 20.609375 9.859375 "/>
<path style=" stroke:none;fill-rule:evenodd;fill:rgb(97.254902%,96.862745%,93.725491%);fill-opacity:1;" d="M 20.640625 8.109375 C 20.863281 8.097656 20.964844 8.203125 20.9375 8.421875 C 20.800781 8.628906 20.667969 8.628906 20.53125 8.421875 C 20.503906 8.296875 20.542969 8.191406 20.640625 8.109375 Z M 20.640625 8.109375 "/>
<path style=" stroke:none;fill-rule:evenodd;fill:rgb(9.411765%,6.27451%,0.392157%);fill-opacity:1;" d="M 13.546875 10.078125 C 13.359375 10.113281 13.171875 10.113281 12.984375 10.078125 C 12.902344 10.058594 12.832031 10.023438 12.765625 9.96875 C 12.347656 9.53125 12.238281 9.027344 12.4375 8.453125 C 12.574219 8.070312 12.839844 7.84375 13.234375 7.765625 C 13.742188 7.839844 14.039062 8.132812 14.125 8.640625 C 14.234375 9.25 14.039062 9.730469 13.546875 10.078125 Z M 13.546875 10.078125 "/>
<path style=" stroke:none;fill-rule:evenodd;fill:rgb(98.039216%,96.862745%,93.333334%);fill-opacity:1;" d="M 13.484375 8.203125 C 13.738281 8.234375 13.816406 8.367188 13.71875 8.609375 C 13.511719 8.753906 13.382812 8.703125 13.328125 8.453125 C 13.347656 8.347656 13.402344 8.265625 13.484375 8.203125 Z M 13.484375 8.203125 "/>
<path style=" stroke:none;fill-rule:evenodd;fill:rgb(50.980395%,25.490198%,5.882353%);fill-opacity:1;" d="M 7.015625 10.890625 C 7.257812 9.570312 7.652344 8.300781 8.203125 7.078125 C 8.199219 7.046875 8.207031 7.027344 8.234375 7.015625 C 8.230469 7.03125 8.238281 7.039062 8.25 7.046875 C 8.34375 6.839844 8.453125 6.640625 8.578125 6.453125 C 8.609375 6.46875 8.632812 6.488281 8.65625 6.515625 C 8.667969 6.480469 8.691406 6.449219 8.71875 6.421875 C 8.734375 6.457031 8.761719 6.484375 8.796875 6.5 C 8.726562 6.535156 8.734375 6.566406 8.828125 6.59375 C 8.785156 6.605469 8.746094 6.613281 8.703125 6.625 C 8.675781 6.691406 8.632812 6.742188 8.578125 6.78125 C 8.621094 6.835938 8.613281 6.875 8.546875 6.90625 C 8.566406 6.917969 8.589844 6.925781 8.609375 6.9375 C 8.5625 7.046875 8.511719 7.148438 8.453125 7.25 C 8.472656 7.40625 8.445312 7.554688 8.375 7.703125 C 8.351562 7.671875 8.328125 7.667969 8.296875 7.6875 C 8.335938 7.710938 8.359375 7.75 8.359375 7.796875 C 8.324219 7.929688 8.28125 8.058594 8.234375 8.1875 C 8.304688 8.21875 8.296875 8.253906 8.21875 8.296875 C 8.167969 8.554688 8.109375 8.796875 8.046875 9.03125 C 8.09375 9.039062 8.132812 9.054688 8.171875 9.078125 C 8.132812 9.09375 8.097656 9.101562 8.0625 9.109375 C 8 9.25 7.96875 9.394531 7.96875 9.546875 C 7.957031 9.628906 7.917969 9.695312 7.859375 9.75 C 7.867188 9.820312 7.878906 9.898438 7.890625 9.984375 C 7.847656 10.226562 7.804688 10.472656 7.765625 10.71875 C 7.777344 10.75 7.800781 10.769531 7.828125 10.78125 C 7.808594 10.792969 7.785156 10.800781 7.765625 10.8125 C 7.808594 10.824219 7.847656 10.832031 7.890625 10.84375 C 7.609375 10.882812 7.332031 10.941406 7.0625 11.015625 C 7.054688 10.96875 7.039062 10.925781 7.015625 10.890625 Z M 7.015625 10.890625 "/>
<path style=" stroke:none;fill-rule:evenodd;fill:rgb(98.431373%,94.901961%,78.823531%);fill-opacity:1;" d="M 22.984375 10.140625 C 23.488281 10.242188 23.925781 10.464844 24.296875 10.8125 C 24.226562 10.828125 24.152344 10.832031 24.078125 10.828125 C 24.003906 10.832031 23.929688 10.828125 23.859375 10.8125 C 23.964844 10.800781 24.066406 10.792969 24.171875 10.78125 C 23.816406 10.457031 23.398438 10.25 22.921875 10.15625 C 22.941406 10.140625 22.960938 10.136719 22.984375 10.140625 Z M 22.984375 10.140625 "/>
<path style=" stroke:none;fill-rule:evenodd;fill:rgb(9.803922%,6.666667%,0.392157%);fill-opacity:1;" d="M 20.109375 10.046875 C 20.285156 10.53125 20.21875 10.980469 19.90625 11.390625 C 19.707031 11.628906 19.472656 11.824219 19.203125 11.96875 C 18.851562 12.15625 18.492188 12.316406 18.125 12.453125 C 18.09375 12.832031 18.039062 13.207031 17.96875 13.578125 C 18.5 14.078125 19.132812 14.269531 19.859375 14.15625 C 20.742188 14.035156 21.421875 13.601562 21.90625 12.859375 C 21.976562 12.730469 22.019531 12.59375 22.03125 12.453125 C 21.921875 12.410156 21.8125 12.363281 21.703125 12.3125 C 21.621094 12.222656 21.632812 12.136719 21.734375 12.0625 C 21.953125 11.941406 22.1875 11.894531 22.4375 11.921875 C 23.269531 11.945312 24.089844 12.070312 24.890625 12.296875 C 24.890625 12.140625 24.890625 11.984375 24.890625 11.828125 C 24.929688 11.890625 24.949219 12 24.953125 12.15625 C 24.875 12.3125 24.917969 12.40625 25.078125 12.4375 C 24.992188 12.4375 24.972656 12.46875 25.015625 12.53125 C 24.984375 12.59375 24.953125 12.65625 24.921875 12.71875 C 24.933594 12.816406 24.949219 12.808594 24.96875 12.703125 C 25.0625 12.738281 25.066406 12.777344 24.984375 12.828125 C 25.015625 12.875 25.003906 12.914062 24.953125 12.953125 C 24.910156 12.863281 24.890625 12.871094 24.890625 12.96875 C 24.925781 13.050781 24.957031 13.136719 24.984375 13.21875 C 24.9375 13.246094 24.902344 13.28125 24.875 13.328125 C 24.855469 13.246094 24.832031 13.246094 24.8125 13.328125 C 24.796875 13.308594 24.792969 13.289062 24.796875 13.265625 C 24.824219 13.066406 24.855469 12.871094 24.890625 12.671875 C 24.878906 12.636719 24.859375 12.609375 24.828125 12.59375 C 24.035156 12.332031 23.222656 12.214844 22.390625 12.25 C 22.675781 12.46875 22.800781 12.757812 22.765625 13.109375 C 22.667969 12.9375 22.542969 12.789062 22.390625 12.65625 C 22.371094 12.636719 22.347656 12.636719 22.328125 12.65625 C 21.894531 13.644531 21.152344 14.261719 20.109375 14.515625 C 19.800781 14.949219 19.457031 15.355469 19.078125 15.734375 C 18.078125 16.542969 16.964844 16.746094 15.734375 16.34375 C 15.414062 16.226562 15.109375 16.074219 14.828125 15.890625 C 14.507812 15.617188 14.199219 15.324219 13.90625 15.015625 C 13.726562 14.773438 13.523438 14.550781 13.296875 14.34375 C 13.230469 14.289062 13.160156 14.253906 13.078125 14.234375 C 12.671875 13.960938 12.308594 13.640625 11.984375 13.265625 C 11.980469 13.25 11.988281 13.242188 12 13.234375 C 12.144531 13.386719 12.296875 13.53125 12.453125 13.671875 C 12.488281 13.632812 12.488281 13.589844 12.453125 13.546875 C 12.476562 13.507812 12.503906 13.507812 12.53125 13.546875 C 12.535156 13.53125 12.542969 13.515625 12.546875 13.5 C 12.535156 13.46875 12.515625 13.453125 12.484375 13.453125 C 12.511719 13.414062 12.519531 13.371094 12.5 13.328125 C 12.425781 13.253906 12.355469 13.183594 12.28125 13.109375 C 12.257812 13.082031 12.265625 13.058594 12.296875 13.046875 C 12.789062 13.605469 13.390625 13.992188 14.109375 14.203125 C 15.171875 14.523438 16.191406 14.414062 17.171875 13.875 C 17.414062 13.714844 17.585938 13.503906 17.6875 13.234375 C 17.714844 13.132812 17.730469 13.027344 17.734375 12.921875 C 17.777344 12.761719 17.777344 12.601562 17.734375 12.4375 C 17.03125 12.238281 16.386719 11.929688 15.796875 11.515625 C 15.328125 11.0625 15.234375 10.542969 15.515625 9.953125 C 15.757812 9.625 16.070312 9.378906 16.453125 9.21875 C 17.433594 8.882812 18.402344 8.914062 19.359375 9.3125 C 19.707031 9.457031 19.957031 9.703125 20.109375 10.046875 Z M 20.109375 10.046875 "/>
<path style=" stroke:none;fill-rule:evenodd;fill:rgb(18.82353%,11.372549%,2.352941%);fill-opacity:1;" d="M 16.046875 10.078125 C 17.246094 10.078125 18.453125 10.078125 19.671875 10.078125 C 19.660156 10.105469 19.617188 10.121094 19.546875 10.125 C 19.617188 10.132812 19.683594 10.148438 19.75 10.171875 C 19.800781 10.257812 19.835938 10.351562 19.859375 10.453125 C 19.820312 10.5 19.820312 10.546875 19.859375 10.59375 C 19.777344 10.613281 19.777344 10.636719 19.859375 10.65625 C 19.839844 10.769531 19.804688 10.878906 19.75 10.984375 C 19.421875 11.339844 19.03125 11.605469 18.578125 11.78125 C 18.429688 11.820312 18.28125 11.867188 18.140625 11.921875 C 18.070312 11.871094 18.011719 11.882812 17.96875 11.953125 C 17.367188 11.824219 16.796875 11.589844 16.265625 11.25 C 16.101562 11.132812 15.976562 10.980469 15.890625 10.796875 C 15.835938 10.53125 15.886719 10.289062 16.046875 10.078125 Z M 16.046875 10.078125 "/>
<path style=" stroke:none;fill-rule:evenodd;fill:rgb(40.392157%,26.666668%,11.372549%);fill-opacity:1;" d="M 19.671875 10.078125 C 18.453125 10.078125 17.246094 10.078125 16.046875 10.078125 C 16.519531 9.585938 17.105469 9.355469 17.796875 9.390625 C 18.351562 9.378906 18.875 9.511719 19.359375 9.78125 C 19.480469 9.863281 19.582031 9.964844 19.671875 10.078125 Z M 19.671875 10.078125 "/>
<path style=" stroke:none;fill-rule:evenodd;fill:rgb(11.372549%,7.450981%,0.784314%);fill-opacity:1;" d="M 7.890625 6.796875 C 7.902344 6.820312 7.925781 6.835938 7.953125 6.84375 C 7.941406 6.855469 7.933594 6.863281 7.921875 6.875 C 7.945312 6.910156 7.960938 6.945312 7.96875 6.984375 C 8.023438 6.941406 8.0625 6.890625 8.09375 6.828125 C 8.121094 6.867188 8.160156 6.890625 8.203125 6.90625 C 8.027344 6.9375 8.015625 6.964844 8.171875 6.984375 C 8.164062 7.023438 8.175781 7.054688 8.203125 7.078125 C 7.652344 8.300781 7.257812 9.570312 7.015625 10.890625 C 7 10.953125 6.996094 11.015625 7 11.078125 C 7.535156 10.9375 8.082031 10.851562 8.640625 10.828125 C 9.957031 10.800781 11.238281 10.992188 12.484375 11.40625 C 12.585938 11.445312 12.675781 11.5 12.75 11.578125 C 12.769531 11.621094 12.769531 11.660156 12.75 11.703125 C 12.683594 11.738281 12.617188 11.742188 12.546875 11.71875 C 11.664062 11.46875 10.769531 11.28125 9.859375 11.15625 C 9.347656 11.128906 8.835938 11.136719 8.328125 11.171875 C 7.851562 11.191406 7.382812 11.253906 6.921875 11.359375 C 6.824219 11.925781 6.738281 12.488281 6.671875 13.046875 C 6.621094 13.175781 6.601562 13.332031 6.609375 13.515625 C 6.550781 13.523438 6.496094 13.546875 6.453125 13.59375 C 6.53125 13.632812 6.535156 13.679688 6.46875 13.734375 C 6.457031 13.714844 6.449219 13.691406 6.4375 13.671875 C 6.410156 13.710938 6.371094 13.734375 6.328125 13.75 C 6.34375 13.761719 6.351562 13.777344 6.359375 13.796875 C 6.328125 13.824219 6.300781 13.855469 6.28125 13.890625 C 6.285156 13.304688 6.332031 12.722656 6.421875 12.140625 C 6.421875 12.09375 6.410156 12.050781 6.390625 12.015625 C 6.410156 11.851562 6.441406 11.6875 6.484375 11.53125 C 6.203125 11.574219 5.933594 11.660156 5.671875 11.78125 C 5.304688 11.945312 4.949219 12.121094 4.609375 12.3125 C 5.054688 11.890625 5.5625 11.566406 6.140625 11.34375 C 6.273438 11.289062 6.410156 11.242188 6.546875 11.203125 C 6.777344 9.664062 7.226562 8.195312 7.890625 6.796875 Z M 7.890625 6.796875 "/>
<path style=" stroke:none;fill-rule:evenodd;fill:rgb(55.686277%,26.274511%,5.882353%);fill-opacity:1;" d="M 24.578125 11.140625 C 24.632812 11.132812 24.6875 11.140625 24.734375 11.171875 C 24.796875 11.3125 24.828125 11.457031 24.828125 11.609375 C 24.753906 11.449219 24.671875 11.292969 24.578125 11.140625 Z M 24.578125 11.140625 "/>
<path style=" stroke:none;fill-rule:evenodd;fill:rgb(99.215686%,89.019608%,65.882355%);fill-opacity:1;" d="M 20.109375 10.046875 C 20.472656 10.230469 20.835938 10.40625 21.203125 10.578125 C 21.734375 10.160156 22.328125 10.015625 22.984375 10.140625 C 22.960938 10.136719 22.941406 10.140625 22.921875 10.15625 C 23.398438 10.25 23.816406 10.457031 24.171875 10.78125 C 24.066406 10.792969 23.964844 10.800781 23.859375 10.8125 C 23.929688 10.828125 24.003906 10.832031 24.078125 10.828125 C 24.078125 10.839844 24.078125 10.847656 24.078125 10.859375 C 23.207031 10.875 22.363281 11.035156 21.546875 11.34375 C 21.441406 11.417969 21.429688 11.5 21.515625 11.59375 C 22.007812 11.445312 22.507812 11.320312 23.015625 11.21875 C 23.535156 11.152344 24.054688 11.125 24.578125 11.140625 C 24.671875 11.292969 24.753906 11.449219 24.828125 11.609375 C 24.851562 11.648438 24.863281 11.6875 24.859375 11.734375 C 24.851562 11.773438 24.863281 11.804688 24.890625 11.828125 C 24.890625 11.984375 24.890625 12.140625 24.890625 12.296875 C 24.089844 12.070312 23.269531 11.945312 22.4375 11.921875 C 22.1875 11.894531 21.953125 11.941406 21.734375 12.0625 C 21.632812 12.136719 21.621094 12.222656 21.703125 12.3125 C 21.8125 12.363281 21.921875 12.410156 22.03125 12.453125 C 22.019531 12.59375 21.976562 12.730469 21.90625 12.859375 C 21.421875 13.601562 20.742188 14.035156 19.859375 14.15625 C 19.132812 14.269531 18.5 14.078125 17.96875 13.578125 C 18.039062 13.207031 18.09375 12.832031 18.125 12.453125 C 18.492188 12.316406 18.851562 12.15625 19.203125 11.96875 C 19.472656 11.824219 19.707031 11.628906 19.90625 11.390625 C 20.21875 10.980469 20.285156 10.53125 20.109375 10.046875 Z M 20.109375 10.046875 "/>
<path style=" stroke:none;fill-rule:evenodd;fill:rgb(12.54902%,8.627451%,0.392157%);fill-opacity:1;" d="M 25.078125 13.890625 C 25.039062 14.023438 24.984375 14.148438 24.921875 14.265625 C 24.835938 14.371094 24.761719 14.507812 24.703125 14.671875 C 24.621094 14.710938 24.542969 14.75 24.46875 14.796875 C 24.460938 14.757812 24.476562 14.726562 24.515625 14.703125 C 24.480469 14.621094 24.449219 14.628906 24.421875 14.71875 C 24.296875 14.742188 24.296875 14.757812 24.421875 14.765625 C 24.421875 14.796875 24.421875 14.828125 24.421875 14.859375 C 24.457031 14.851562 24.488281 14.863281 24.515625 14.890625 C 24.546875 14.917969 24.546875 14.9375 24.515625 14.953125 C 24.457031 14.875 24.398438 14.875 24.34375 14.953125 C 24.324219 14.910156 24.292969 14.878906 24.25 14.859375 C 24.246094 14.808594 24.261719 14.761719 24.296875 14.71875 C 24.292969 14.695312 24.285156 14.679688 24.265625 14.671875 C 24.511719 14.226562 24.6875 13.757812 24.796875 13.265625 C 24.792969 13.289062 24.796875 13.308594 24.8125 13.328125 C 24.832031 13.246094 24.855469 13.246094 24.875 13.328125 C 24.902344 13.28125 24.9375 13.246094 24.984375 13.21875 C 24.957031 13.136719 24.925781 13.050781 24.890625 12.96875 C 24.890625 12.871094 24.910156 12.863281 24.953125 12.953125 C 25.003906 12.914062 25.015625 12.875 24.984375 12.828125 C 25.066406 12.777344 25.0625 12.738281 24.96875 12.703125 C 24.949219 12.808594 24.933594 12.816406 24.921875 12.71875 C 24.953125 12.65625 24.984375 12.59375 25.015625 12.53125 C 24.972656 12.46875 24.992188 12.4375 25.078125 12.4375 C 24.917969 12.40625 24.875 12.3125 24.953125 12.15625 C 24.949219 12 24.929688 11.890625 24.890625 11.828125 C 24.863281 11.804688 24.851562 11.773438 24.859375 11.734375 C 24.882812 11.617188 24.890625 11.496094 24.890625 11.375 C 24.839844 11.296875 24.800781 11.214844 24.765625 11.125 C 24.777344 11.113281 24.785156 11.105469 24.796875 11.09375 C 24.722656 11.070312 24.722656 11.039062 24.796875 11 C 24.75 10.964844 24.753906 10.9375 24.8125 10.921875 C 24.910156 10.964844 25.007812 11 25.109375 11.03125 C 25.105469 11.066406 25.09375 11.101562 25.078125 11.140625 C 25.089844 11.179688 25.105469 11.179688 25.125 11.140625 C 25.242188 11.582031 25.292969 12.027344 25.28125 12.484375 C 25.335938 12.527344 25.390625 12.5625 25.453125 12.59375 C 25.375 12.640625 25.375 12.683594 25.453125 12.71875 C 25.402344 12.742188 25.355469 12.734375 25.3125 12.703125 C 25.292969 12.722656 25.269531 12.746094 25.25 12.765625 C 25.214844 13.140625 25.136719 13.503906 25.015625 13.859375 C 25.03125 13.882812 25.050781 13.894531 25.078125 13.890625 Z M 25.078125 13.890625 "/>
<path style=" stroke:none;fill-rule:evenodd;fill:rgb(91.764706%,80.000001%,55.29412%);fill-opacity:1;" d="M 15.796875 11.515625 C 16.386719 11.929688 17.03125 12.238281 17.734375 12.4375 C 17.777344 12.601562 17.777344 12.761719 17.734375 12.921875 C 17.6875 13.070312 17.632812 13.238281 17.5625 13.421875 C 17.539062 13.492188 17.503906 13.523438 17.453125 13.515625 C 17.617188 13.222656 17.6875 12.910156 17.671875 12.578125 C 16.972656 12.453125 16.363281 12.152344 15.84375 11.671875 C 15.824219 11.625 15.796875 11.585938 15.765625 11.546875 C 15.769531 11.527344 15.78125 11.515625 15.796875 11.515625 Z M 15.796875 11.515625 "/>
<path style=" stroke:none;fill-rule:evenodd;fill:rgb(10.980392%,7.450981%,0.784314%);fill-opacity:1;" d="M 11.046875 12.078125 C 11.457031 12.0625 11.863281 12.085938 12.265625 12.15625 C 12.578125 12.265625 12.589844 12.375 12.296875 12.484375 C 12.160156 12.476562 12.046875 12.519531 11.953125 12.609375 C 12.066406 12.757812 12.183594 12.902344 12.296875 13.046875 C 12.265625 13.058594 12.257812 13.082031 12.28125 13.109375 C 12.355469 13.183594 12.425781 13.253906 12.5 13.328125 C 12.519531 13.371094 12.511719 13.414062 12.484375 13.453125 C 12.515625 13.453125 12.535156 13.46875 12.546875 13.5 C 12.542969 13.515625 12.535156 13.53125 12.53125 13.546875 C 12.503906 13.507812 12.476562 13.507812 12.453125 13.546875 C 12.488281 13.589844 12.488281 13.632812 12.453125 13.671875 C 12.296875 13.53125 12.144531 13.386719 12 13.234375 C 11.988281 13.242188 11.980469 13.25 11.984375 13.265625 C 11.851562 13.121094 11.714844 12.972656 11.578125 12.828125 C 11.335938 12.992188 11.144531 13.199219 11 13.453125 C 10.9375 13.25 10.957031 13.050781 11.0625 12.859375 C 11.167969 12.691406 11.300781 12.539062 11.453125 12.40625 C 10.414062 12.359375 9.414062 12.53125 8.453125 12.921875 C 8.429688 12.886719 8.398438 12.882812 8.359375 12.90625 C 8.121094 13.019531 7.878906 13.125 7.640625 13.21875 C 7.757812 13.167969 7.757812 13.125 7.640625 13.09375 C 7.671875 13.078125 7.703125 13.074219 7.734375 13.078125 C 7.726562 13.042969 7.738281 13.011719 7.765625 12.984375 C 7.90625 12.90625 8.054688 12.839844 8.203125 12.78125 C 8.183594 12.765625 8.164062 12.761719 8.140625 12.765625 C 8.460938 12.609375 8.792969 12.484375 9.140625 12.390625 C 9.515625 12.285156 9.890625 12.203125 10.265625 12.140625 C 10.523438 12.105469 10.785156 12.085938 11.046875 12.078125 Z M 11.046875 12.078125 "/>
<path style=" stroke:none;fill-rule:evenodd;fill:rgb(95.294118%,92.156863%,77.64706%);fill-opacity:1;" d="M 9.140625 12.390625 C 8.792969 12.484375 8.460938 12.609375 8.140625 12.765625 C 7.996094 12.828125 7.847656 12.890625 7.703125 12.953125 C 7.730469 12.863281 7.742188 12.769531 7.734375 12.671875 C 7.761719 12.738281 7.777344 12.8125 7.78125 12.890625 C 8.214844 12.644531 8.667969 12.476562 9.140625 12.390625 Z M 9.140625 12.390625 "/>
<path style=" stroke:none;fill-rule:evenodd;fill:rgb(52.941179%,27.058825%,6.666667%);fill-opacity:1;" d="M 8.328125 11.171875 C 8.007812 11.621094 7.8125 12.121094 7.734375 12.671875 C 7.742188 12.769531 7.730469 12.863281 7.703125 12.953125 C 7.347656 13.136719 7.003906 13.34375 6.671875 13.578125 C 6.660156 13.402344 6.660156 13.226562 6.671875 13.046875 C 6.738281 12.488281 6.824219 11.925781 6.921875 11.359375 C 7.382812 11.253906 7.851562 11.191406 8.328125 11.171875 Z M 8.328125 11.171875 "/>
<path style=" stroke:none;fill-rule:evenodd;fill:rgb(9.411765%,6.27451%,1.176471%);fill-opacity:1;" d="M 6.390625 12.015625 C 6.410156 12.050781 6.421875 12.09375 6.421875 12.140625 C 6.332031 12.722656 6.285156 13.304688 6.28125 13.890625 C 6.300781 13.855469 6.328125 13.824219 6.359375 13.796875 C 6.351562 13.777344 6.34375 13.761719 6.328125 13.75 C 6.371094 13.734375 6.410156 13.710938 6.4375 13.671875 C 6.449219 13.691406 6.457031 13.714844 6.46875 13.734375 C 6.535156 13.679688 6.53125 13.632812 6.453125 13.59375 C 6.496094 13.546875 6.550781 13.523438 6.609375 13.515625 C 6.601562 13.332031 6.621094 13.175781 6.671875 13.046875 C 6.660156 13.226562 6.660156 13.402344 6.671875 13.578125 C 7.003906 13.34375 7.347656 13.136719 7.703125 12.953125 C 7.847656 12.890625 7.996094 12.828125 8.140625 12.765625 C 8.164062 12.761719 8.183594 12.765625 8.203125 12.78125 C 8.054688 12.839844 7.90625 12.90625 7.765625 12.984375 C 7.738281 13.011719 7.726562 13.042969 7.734375 13.078125 C 7.703125 13.074219 7.671875 13.078125 7.640625 13.09375 C 7.757812 13.125 7.757812 13.167969 7.640625 13.21875 C 7.878906 13.125 8.121094 13.019531 8.359375 12.90625 C 8.398438 12.882812 8.429688 12.886719 8.453125 12.921875 C 8.285156 12.996094 8.121094 13.066406 7.953125 13.140625 C 7.859375 13.175781 7.773438 13.230469 7.703125 13.296875 C 7.320312 13.460938 6.960938 13.667969 6.625 13.921875 C 6.609375 14.183594 6.605469 14.441406 6.609375 14.703125 C 6.582031 14.925781 6.566406 15.15625 6.5625 15.390625 C 6.554688 14.910156 6.546875 14.429688 6.546875 13.953125 C 6.476562 14.019531 6.414062 14.09375 6.359375 14.171875 C 6.320312 14.199219 6.28125 14.210938 6.234375 14.203125 C 6.25 15.132812 6.226562 16.058594 6.15625 16.984375 C 6.0625 17.628906 5.875 18.242188 5.59375 18.828125 C 5.578125 18.808594 5.574219 18.789062 5.578125 18.765625 C 6.054688 17.703125 6.253906 16.589844 6.171875 15.421875 C 6.167969 15.035156 6.160156 14.652344 6.15625 14.265625 C 5.960938 14.425781 5.773438 14.589844 5.59375 14.765625 C 5.738281 14.472656 5.9375 14.214844 6.1875 13.984375 C 6.222656 13.324219 6.289062 12.667969 6.390625 12.015625 Z M 6.390625 12.015625 "/>
<path style=" stroke:none;fill-rule:evenodd;fill:rgb(99.215686%,88.627452%,65.490198%);fill-opacity:1;" d="M 15.515625 9.953125 C 15.234375 10.542969 15.328125 11.0625 15.796875 11.515625 C 15.78125 11.515625 15.769531 11.527344 15.765625 11.546875 C 15.796875 11.585938 15.824219 11.625 15.84375 11.671875 C 16.363281 12.152344 16.972656 12.453125 17.671875 12.578125 C 17.6875 12.910156 17.617188 13.222656 17.453125 13.515625 C 17.503906 13.523438 17.539062 13.492188 17.5625 13.421875 C 17.632812 13.238281 17.6875 13.070312 17.734375 12.921875 C 17.730469 13.027344 17.714844 13.132812 17.6875 13.234375 C 17.585938 13.503906 17.414062 13.714844 17.171875 13.875 C 16.191406 14.414062 15.171875 14.523438 14.109375 14.203125 C 14.03125 14.144531 13.925781 14.089844 13.796875 14.046875 C 13.777344 14.007812 13.773438 13.96875 13.78125 13.921875 C 13.71875 13.941406 13.691406 13.972656 13.703125 14.015625 C 13.007812 13.707031 12.445312 13.238281 12.015625 12.609375 C 12.125 12.558594 12.238281 12.523438 12.359375 12.5 C 12.339844 12.484375 12.320312 12.480469 12.296875 12.484375 C 12.589844 12.375 12.578125 12.265625 12.265625 12.15625 C 11.863281 12.085938 11.457031 12.0625 11.046875 12.078125 C 11.269531 12.050781 11.5 12.035156 11.734375 12.03125 C 11.464844 12.011719 11.191406 12.011719 10.921875 12.03125 C 10.636719 12.042969 10.417969 12.082031 10.265625 12.140625 C 9.890625 12.203125 9.515625 12.285156 9.140625 12.390625 C 8.667969 12.476562 8.214844 12.644531 7.78125 12.890625 C 7.777344 12.8125 7.761719 12.738281 7.734375 12.671875 C 7.8125 12.121094 8.007812 11.621094 8.328125 11.171875 C 8.835938 11.136719 9.347656 11.128906 9.859375 11.15625 C 10.769531 11.28125 11.664062 11.46875 12.546875 11.71875 C 12.617188 11.742188 12.683594 11.738281 12.75 11.703125 C 12.769531 11.660156 12.769531 11.621094 12.75 11.578125 C 12.675781 11.5 12.585938 11.445312 12.484375 11.40625 C 11.238281 10.992188 9.957031 10.800781 8.640625 10.828125 C 9.117188 10.359375 9.691406 10.074219 10.359375 9.96875 C 11.304688 9.886719 12.160156 10.128906 12.921875 10.6875 C 13.1875 10.707031 13.449219 10.675781 13.703125 10.59375 C 14.175781 10.425781 14.644531 10.25 15.109375 10.0625 C 15.242188 10.011719 15.375 9.972656 15.515625 9.953125 Z M 15.515625 9.953125 "/>
<path style=" stroke:none;fill-rule:evenodd;fill:rgb(98.823529%,97.647059%,85.882354%);fill-opacity:1;" d="M 11.046875 12.078125 C 10.785156 12.085938 10.523438 12.105469 10.265625 12.140625 C 10.417969 12.082031 10.636719 12.042969 10.921875 12.03125 C 11.191406 12.011719 11.464844 12.011719 11.734375 12.03125 C 11.5 12.035156 11.269531 12.050781 11.046875 12.078125 Z M 11.046875 12.078125 "/>
<path style=" stroke:none;fill-rule:evenodd;fill:rgb(46.27451%,22.745098%,3.921569%);fill-opacity:1;" d="M 22.328125 18.015625 C 22.308594 17.765625 22.300781 17.515625 22.296875 17.265625 C 22.453125 17.164062 22.609375 17.058594 22.765625 16.953125 C 22.773438 16.976562 22.789062 17 22.8125 17.015625 C 22.855469 16.933594 22.917969 16.871094 23 16.828125 C 23.039062 17.027344 23.054688 17.234375 23.046875 17.453125 C 22.984375 17.445312 22.9375 17.464844 22.90625 17.515625 C 22.855469 17.417969 22.808594 17.410156 22.765625 17.5 C 22.792969 17.535156 22.824219 17.550781 22.859375 17.546875 C 22.695312 17.597656 22.53125 17.617188 22.359375 17.609375 C 22.371094 17.75 22.359375 17.886719 22.328125 18.015625 Z M 22.328125 18.015625 "/>
<path style=" stroke:none;fill-rule:evenodd;fill:rgb(16.470589%,10.196079%,1.568628%);fill-opacity:1;" d="M 6.609375 14.703125 C 6.613281 15.328125 6.609375 15.953125 6.59375 16.578125 C 6.539062 17.425781 6.320312 18.226562 5.9375 18.984375 C 5.691406 19.429688 5.433594 19.867188 5.171875 20.296875 C 5.03125 20.28125 4.894531 20.28125 4.765625 20.296875 C 4.820312 20.21875 4.867188 20.136719 4.90625 20.046875 C 4.925781 20.089844 4.949219 20.089844 4.96875 20.046875 C 5.011719 20.066406 5.042969 20.097656 5.0625 20.140625 C 5.121094 20.085938 5.113281 20.050781 5.046875 20.03125 C 5.078125 19.960938 5.109375 19.894531 5.140625 19.828125 C 5.136719 19.808594 5.128906 19.785156 5.125 19.765625 C 5.105469 19.804688 5.089844 19.804688 5.078125 19.765625 C 5.207031 19.554688 5.332031 19.339844 5.453125 19.125 C 5.433594 19.109375 5.414062 19.105469 5.390625 19.109375 C 5.445312 18.988281 5.507812 18.875 5.578125 18.765625 C 5.574219 18.789062 5.578125 18.808594 5.59375 18.828125 C 5.875 18.242188 6.0625 17.628906 6.15625 16.984375 C 6.226562 16.058594 6.25 15.132812 6.234375 14.203125 C 6.28125 14.210938 6.320312 14.199219 6.359375 14.171875 C 6.414062 14.09375 6.476562 14.019531 6.546875 13.953125 C 6.546875 14.429688 6.554688 14.910156 6.5625 15.390625 C 6.566406 15.15625 6.582031 14.925781 6.609375 14.703125 Z M 6.609375 14.703125 "/>
<path style=" stroke:none;fill-rule:evenodd;fill:rgb(93.333334%,81.176472%,56.470591%);fill-opacity:1;" d="M 7.953125 13.140625 C 8.363281 14.203125 8.988281 15.125 9.828125 15.90625 C 12.113281 17.835938 14.757812 18.703125 17.765625 18.5 C 17.703125 18.574219 17.628906 18.636719 17.546875 18.6875 C 16.902344 19.019531 16.214844 19.207031 15.484375 19.25 C 14.742188 19.277344 14.011719 19.195312 13.296875 19 C 12.148438 18.675781 11.09375 18.191406 10.140625 17.546875 C 10.265625 17.621094 10.390625 17.652344 10.515625 17.640625 C 10.792969 17.734375 11.074219 17.792969 11.359375 17.8125 C 10.332031 17.285156 9.433594 16.59375 8.65625 15.734375 C 8.066406 15.03125 7.746094 14.21875 7.703125 13.296875 C 7.773438 13.230469 7.859375 13.175781 7.953125 13.140625 Z M 7.953125 13.140625 "/>
<path style=" stroke:none;fill-rule:evenodd;fill:rgb(10.196079%,6.666667%,0.392157%);fill-opacity:1;" d="M 24.921875 14.265625 C 24.601562 15.070312 24.128906 15.769531 23.5 16.359375 C 23.363281 17.273438 23.527344 18.128906 24 18.921875 C 24.800781 20.03125 25.589844 21.144531 26.375 22.265625 C 27.070312 23.320312 27.558594 24.46875 27.84375 25.703125 C 27.917969 25.9375 27.90625 26.164062 27.8125 26.390625 C 27.789062 26.457031 27.753906 26.507812 27.703125 26.546875 C 27.421875 25.195312 26.921875 23.933594 26.203125 22.765625 C 25.863281 22.171875 25.480469 21.609375 25.046875 21.078125 C 24.601562 20.429688 24.148438 19.785156 23.6875 19.140625 C 23.246094 18.402344 23.03125 17.597656 23.046875 16.734375 C 22.957031 16.816406 22.863281 16.886719 22.765625 16.953125 C 22.609375 17.058594 22.453125 17.164062 22.296875 17.265625 C 22.128906 17.332031 21.964844 17.398438 21.796875 17.46875 C 21.632812 17.53125 21.46875 17.5625 21.296875 17.5625 C 22.332031 16.933594 23.222656 16.136719 23.96875 15.171875 C 24.074219 15.007812 24.171875 14.84375 24.265625 14.671875 C 24.285156 14.679688 24.292969 14.695312 24.296875 14.71875 C 24.261719 14.761719 24.246094 14.808594 24.25 14.859375 C 24.292969 14.878906 24.324219 14.910156 24.34375 14.953125 C 24.398438 14.875 24.457031 14.875 24.515625 14.953125 C 24.546875 14.9375 24.546875 14.917969 24.515625 14.890625 C 24.488281 14.863281 24.457031 14.851562 24.421875 14.859375 C 24.421875 14.828125 24.421875 14.796875 24.421875 14.765625 C 24.296875 14.757812 24.296875 14.742188 24.421875 14.71875 C 24.449219 14.628906 24.480469 14.621094 24.515625 14.703125 C 24.476562 14.726562 24.460938 14.757812 24.46875 14.796875 C 24.542969 14.75 24.621094 14.710938 24.703125 14.671875 C 24.761719 14.507812 24.835938 14.371094 24.921875 14.265625 Z M 24.921875 14.265625 "/>
<path style=" stroke:none;fill-rule:evenodd;fill:rgb(57.647061%,30.588236%,9.411765%);fill-opacity:1;" d="M 25.046875 21.078125 C 25.171875 21.324219 25.296875 21.574219 25.421875 21.828125 C 25.664062 22.160156 25.921875 22.472656 26.203125 22.765625 C 26.921875 23.933594 27.421875 25.195312 27.703125 26.546875 C 27.300781 27.113281 26.78125 27.527344 26.140625 27.796875 C 26.085938 27.808594 26.035156 27.828125 25.984375 27.859375 C 25.976562 27.789062 25.96875 27.714844 25.953125 27.640625 C 25.910156 27.6875 25.863281 27.726562 25.8125 27.765625 C 25.800781 27.738281 25.785156 27.710938 25.765625 27.6875 C 25.851562 27.652344 25.929688 27.605469 26 27.546875 C 26.015625 27.472656 26.011719 27.398438 25.984375 27.328125 C 25.996094 27.292969 26.019531 27.261719 26.046875 27.234375 C 25.988281 27.171875 25.972656 27.097656 26 27.015625 C 26.027344 27.09375 26.074219 27.125 26.140625 27.109375 C 26.074219 26.980469 26 26.871094 25.921875 26.78125 C 25.953125 26.664062 25.933594 26.554688 25.859375 26.453125 C 25.851562 26.355469 25.851562 26.257812 25.859375 26.15625 C 25.804688 26.113281 25.769531 26.054688 25.75 25.984375 C 25.726562 25.835938 25.695312 25.691406 25.65625 25.546875 C 25.636719 25.5 25.613281 25.457031 25.578125 25.421875 C 25.546875 25.449219 25.515625 25.453125 25.484375 25.4375 C 25.515625 25.410156 25.546875 25.386719 25.578125 25.359375 C 25.554688 25.285156 25.523438 25.210938 25.484375 25.140625 C 25.492188 25.121094 25.5 25.105469 25.515625 25.09375 C 25.457031 25.003906 25.402344 24.910156 25.359375 24.8125 C 25.371094 24.800781 25.378906 24.792969 25.390625 24.78125 C 25.273438 24.664062 25.234375 24.53125 25.265625 24.375 C 25.152344 24.132812 25.023438 23.910156 24.875 23.703125 C 24.804688 23.480469 24.722656 23.261719 24.625 23.046875 C 24.539062 22.914062 24.453125 22.78125 24.359375 22.65625 C 24.371094 22.644531 24.378906 22.636719 24.390625 22.625 C 24.355469 22.558594 24.316406 22.496094 24.265625 22.4375 C 24.230469 22.394531 24.230469 22.351562 24.265625 22.3125 C 24.1875 22.253906 24.144531 22.175781 24.140625 22.078125 C 24.109375 22.078125 24.078125 22.078125 24.046875 22.078125 C 24.027344 22.007812 23.996094 21.9375 23.953125 21.875 C 23.972656 21.863281 23.996094 21.855469 24.015625 21.84375 C 23.980469 21.835938 23.949219 21.820312 23.921875 21.796875 C 23.882812 21.691406 23.828125 21.597656 23.75 21.515625 C 23.753906 21.574219 23.746094 21.625 23.734375 21.671875 C 23.59375 21.332031 23.421875 21.007812 23.21875 20.703125 C 23.199219 20.664062 23.183594 20.664062 23.171875 20.703125 C 23.8125 22.492188 24.175781 24.335938 24.265625 26.234375 C 24.042969 24.472656 23.652344 22.742188 23.09375 21.046875 C 22.894531 20.507812 22.707031 19.96875 22.53125 19.421875 C 22.429688 18.957031 22.363281 18.488281 22.328125 18.015625 C 22.359375 17.886719 22.371094 17.75 22.359375 17.609375 C 22.53125 17.617188 22.695312 17.597656 22.859375 17.546875 C 22.824219 17.550781 22.792969 17.535156 22.765625 17.5 C 22.808594 17.410156 22.855469 17.417969 22.90625 17.515625 C 22.9375 17.464844 22.984375 17.445312 23.046875 17.453125 C 23.054688 17.234375 23.039062 17.027344 23 16.828125 C 22.917969 16.871094 22.855469 16.933594 22.8125 17.015625 C 22.789062 17 22.773438 16.976562 22.765625 16.953125 C 22.863281 16.886719 22.957031 16.816406 23.046875 16.734375 C 23.03125 17.597656 23.246094 18.402344 23.6875 19.140625 C 24.148438 19.785156 24.601562 20.429688 25.046875 21.078125 Z M 25.046875 21.078125 "/>
<path style=" stroke:none;fill-rule:evenodd;fill:rgb(99.607843%,88.627452%,65.490198%);fill-opacity:1;" d="M 24.796875 13.265625 C 24.6875 13.757812 24.511719 14.226562 24.265625 14.671875 C 24.171875 14.84375 24.074219 15.007812 23.96875 15.171875 C 23.222656 16.136719 22.332031 16.933594 21.296875 17.5625 C 21.46875 17.5625 21.632812 17.53125 21.796875 17.46875 C 21.964844 17.398438 22.128906 17.332031 22.296875 17.265625 C 22.300781 17.515625 22.308594 17.765625 22.328125 18.015625 C 22.363281 18.488281 22.429688 18.957031 22.53125 19.421875 C 22.707031 19.96875 22.894531 20.507812 23.09375 21.046875 C 23.652344 22.742188 24.042969 24.472656 24.265625 26.234375 C 24.304688 27.023438 24.304688 27.804688 24.265625 28.578125 C 22.457031 29.136719 20.601562 29.464844 18.703125 29.5625 C 17.515625 29.625 16.328125 29.609375 15.140625 29.515625 C 15.367188 29.3125 15.582031 29.09375 15.78125 28.859375 C 16 28.480469 16.070312 28.074219 16 27.640625 C 15.921875 27.273438 15.792969 26.929688 15.609375 26.609375 C 15.226562 26 14.6875 25.585938 14 25.359375 C 13.976562 25.363281 13.960938 25.371094 13.953125 25.390625 C 13.761719 25.339844 13.574219 25.285156 13.390625 25.234375 C 13.421875 25.238281 13.453125 25.234375 13.484375 25.21875 C 12.746094 25.042969 12.039062 24.789062 11.359375 24.453125 C 11.332031 24.277344 11.316406 24.101562 11.3125 23.921875 C 11.308594 24.09375 11.292969 24.261719 11.265625 24.421875 C 11.28125 23.605469 11.246094 22.792969 11.15625 21.984375 C 11.070312 21.550781 10.96875 21.125 10.84375 20.703125 C 10.578125 19.90625 10.328125 19.101562 10.09375 18.296875 C 10.03125 18.039062 9.984375 17.777344 9.953125 17.515625 C 9.953125 17.488281 9.964844 17.464844 9.984375 17.453125 C 10.15625 17.523438 10.335938 17.585938 10.515625 17.640625 C 10.390625 17.652344 10.265625 17.621094 10.140625 17.546875 C 11.09375 18.191406 12.148438 18.675781 13.296875 19 C 14.011719 19.195312 14.742188 19.277344 15.484375 19.25 C 16.214844 19.207031 16.902344 19.019531 17.546875 18.6875 C 17.628906 18.636719 17.703125 18.574219 17.765625 18.5 C 14.757812 18.703125 12.113281 17.835938 9.828125 15.90625 C 8.988281 15.125 8.363281 14.203125 7.953125 13.140625 C 8.121094 13.066406 8.285156 12.996094 8.453125 12.921875 C 9.414062 12.53125 10.414062 12.359375 11.453125 12.40625 C 11.300781 12.539062 11.167969 12.691406 11.0625 12.859375 C 10.957031 13.050781 10.9375 13.25 11 13.453125 C 11.144531 13.199219 11.335938 12.992188 11.578125 12.828125 C 11.714844 12.972656 11.851562 13.121094 11.984375 13.265625 C 12.308594 13.640625 12.671875 13.960938 13.078125 14.234375 C 13.273438 14.382812 13.457031 14.550781 13.625 14.734375 C 13.953125 15.136719 14.3125 15.503906 14.703125 15.84375 C 14.742188 15.867188 14.785156 15.882812 14.828125 15.890625 C 15.109375 16.074219 15.414062 16.226562 15.734375 16.34375 C 16.964844 16.746094 18.078125 16.542969 19.078125 15.734375 C 19.273438 15.585938 19.457031 15.417969 19.625 15.234375 C 19.796875 14.992188 19.980469 14.757812 20.171875 14.53125 C 20.152344 14.515625 20.132812 14.511719 20.109375 14.515625 C 21.152344 14.261719 21.894531 13.644531 22.328125 12.65625 C 22.347656 12.636719 22.371094 12.636719 22.390625 12.65625 C 22.542969 12.789062 22.667969 12.9375 22.765625 13.109375 C 22.800781 12.757812 22.675781 12.46875 22.390625 12.25 C 23.222656 12.214844 24.035156 12.332031 24.828125 12.59375 C 24.859375 12.609375 24.878906 12.636719 24.890625 12.671875 C 24.855469 12.871094 24.824219 13.066406 24.796875 13.265625 Z M 24.796875 13.265625 "/>
<path style=" stroke:none;fill-rule:evenodd;fill:rgb(11.764706%,7.843138%,1.176471%);fill-opacity:1;" d="M 18.890625 17.078125 C 18.914062 17.074219 18.933594 17.078125 18.953125 17.09375 C 18.640625 17.574219 18.203125 17.863281 17.640625 17.96875 C 16.96875 18.109375 16.3125 18.054688 15.671875 17.8125 C 15.355469 17.664062 15.085938 17.457031 14.859375 17.1875 C 16.054688 17.785156 17.273438 17.824219 18.515625 17.3125 C 18.660156 17.257812 18.785156 17.179688 18.890625 17.078125 Z M 18.890625 17.078125 "/>
<path style=" stroke:none;fill-rule:evenodd;fill:rgb(85.882354%,51.764709%,34.901962%);fill-opacity:1;" d="M 17.078125 15.015625 C 17.386719 15.058594 17.679688 15.152344 17.953125 15.296875 C 18.027344 15.363281 18.109375 15.417969 18.203125 15.453125 C 18.296875 15.535156 18.390625 15.617188 18.484375 15.703125 C 18.242188 15.882812 17.972656 16 17.671875 16.0625 C 16.644531 16.277344 15.726562 16.054688 14.921875 15.390625 C 15.09375 15.308594 15.273438 15.234375 15.453125 15.171875 C 15.328125 15.25 15.183594 15.328125 15.015625 15.40625 C 15.117188 15.503906 15.230469 15.582031 15.359375 15.640625 C 15.378906 15.632812 15.394531 15.625 15.40625 15.609375 C 15.484375 15.761719 15.5625 15.785156 15.640625 15.6875 C 15.605469 15.65625 15.617188 15.636719 15.671875 15.625 C 15.59375 15.59375 15.59375 15.558594 15.671875 15.515625 C 15.664062 15.496094 15.65625 15.480469 15.640625 15.46875 C 15.679688 15.453125 15.707031 15.46875 15.71875 15.515625 C 15.789062 15.453125 15.835938 15.390625 15.859375 15.328125 C 15.878906 15.378906 15.886719 15.425781 15.890625 15.46875 C 15.867188 15.515625 15.839844 15.519531 15.8125 15.484375 C 15.78125 15.519531 15.757812 15.5625 15.75 15.609375 C 15.730469 15.570312 15.714844 15.570312 15.703125 15.609375 C 15.714844 15.644531 15.738281 15.675781 15.765625 15.703125 C 15.902344 15.652344 15.960938 15.695312 15.9375 15.828125 C 16.007812 15.765625 16.085938 15.765625 16.171875 15.828125 C 16.246094 15.703125 16.324219 15.703125 16.40625 15.828125 C 16.398438 15.777344 16.398438 15.726562 16.40625 15.671875 C 16.425781 15.714844 16.449219 15.714844 16.46875 15.671875 C 16.507812 15.613281 16.519531 15.550781 16.5 15.484375 C 16.484375 15.550781 16.46875 15.554688 16.453125 15.5 C 16.464844 15.46875 16.488281 15.449219 16.515625 15.4375 C 16.496094 15.425781 16.472656 15.417969 16.453125 15.40625 C 16.488281 15.371094 16.527344 15.332031 16.5625 15.296875 C 16.578125 15.328125 16.582031 15.359375 16.578125 15.390625 C 16.628906 15.398438 16.675781 15.386719 16.71875 15.359375 C 16.6875 15.414062 16.699219 15.46875 16.75 15.515625 C 16.75 15.449219 16.789062 15.390625 16.859375 15.34375 C 16.757812 15.332031 16.746094 15.285156 16.828125 15.203125 C 16.871094 15.246094 16.910156 15.246094 16.953125 15.203125 C 16.964844 15.207031 16.972656 15.214844 16.984375 15.21875 C 16.964844 15.242188 16.949219 15.269531 16.9375 15.296875 C 16.90625 15.265625 16.867188 15.261719 16.828125 15.28125 C 16.871094 15.304688 16.894531 15.34375 16.90625 15.390625 C 16.925781 15.371094 16.949219 15.347656 16.96875 15.328125 C 17.003906 15.398438 17.035156 15.472656 17.0625 15.546875 C 17.082031 15.527344 17.105469 15.503906 17.125 15.484375 C 17.136719 15.53125 17.164062 15.546875 17.203125 15.53125 C 17.164062 15.449219 17.1875 15.425781 17.265625 15.453125 C 17.300781 15.398438 17.285156 15.355469 17.21875 15.328125 C 17.140625 15.492188 17.085938 15.492188 17.0625 15.328125 C 17.09375 15.253906 17.136719 15.210938 17.1875 15.203125 C 17.195312 15.226562 17.210938 15.25 17.234375 15.265625 C 17.273438 15.242188 17.273438 15.214844 17.234375 15.1875 C 17.277344 15.167969 17.316406 15.144531 17.359375 15.125 C 17.25 15.082031 17.132812 15.050781 17.015625 15.03125 C 17.035156 15.015625 17.054688 15.011719 17.078125 15.015625 Z M 17.078125 15.015625 "/>
<path style=" stroke:none;fill-rule:evenodd;fill:rgb(97.647059%,94.901961%,80.000001%);fill-opacity:1;" d="M 20.109375 14.515625 C 20.132812 14.511719 20.152344 14.515625 20.171875 14.53125 C 19.980469 14.757812 19.796875 14.992188 19.625 15.234375 C 19.457031 15.417969 19.273438 15.585938 19.078125 15.734375 C 19.457031 15.355469 19.800781 14.949219 20.109375 14.515625 Z M 20.109375 14.515625 "/>
<path style=" stroke:none;fill-rule:evenodd;fill:rgb(20%,12.156863%,2.745098%);fill-opacity:1;" d="M 18.203125 15.453125 C 18.109375 15.417969 18.027344 15.363281 17.953125 15.296875 C 17.667969 15.113281 17.355469 14.992188 17.015625 14.9375 C 16.765625 14.925781 16.515625 14.917969 16.265625 14.90625 C 16.34375 14.882812 16.375 14.84375 16.359375 14.78125 C 16.398438 14.761719 16.4375 14.765625 16.46875 14.796875 C 16.488281 14.714844 16.511719 14.714844 16.53125 14.796875 C 16.582031 14.777344 16.636719 14.753906 16.6875 14.734375 C 16.714844 14.761719 16.738281 14.792969 16.75 14.828125 C 16.8125 14.753906 16.878906 14.746094 16.953125 14.8125 C 16.898438 14.828125 16.886719 14.855469 16.921875 14.890625 C 16.960938 14.828125 17.011719 14.773438 17.078125 14.734375 C 17.101562 14.75 17.117188 14.773438 17.125 14.796875 C 17.207031 14.785156 17.28125 14.753906 17.34375 14.703125 C 17.355469 14.730469 17.375 14.753906 17.40625 14.765625 C 17.699219 14.765625 17.988281 14.765625 18.28125 14.765625 C 18.558594 14.746094 18.832031 14.714844 19.109375 14.671875 C 19.242188 14.695312 19.378906 14.703125 19.515625 14.6875 C 19.21875 15.054688 18.890625 15.394531 18.53125 15.703125 C 18.445312 15.589844 18.335938 15.507812 18.203125 15.453125 Z M 18.203125 15.453125 "/>
<path style=" stroke:none;fill-rule:evenodd;fill:rgb(80.784315%,47.843137%,31.37255%);fill-opacity:1;" d="M 17.078125 15.015625 C 17.054688 15.011719 17.035156 15.015625 17.015625 15.03125 C 17.132812 15.050781 17.25 15.082031 17.359375 15.125 C 17.316406 15.144531 17.277344 15.167969 17.234375 15.1875 C 17.273438 15.214844 17.273438 15.242188 17.234375 15.265625 C 17.210938 15.25 17.195312 15.226562 17.1875 15.203125 C 17.136719 15.210938 17.09375 15.253906 17.0625 15.328125 C 17.085938 15.492188 17.140625 15.492188 17.21875 15.328125 C 17.285156 15.355469 17.300781 15.398438 17.265625 15.453125 C 17.1875 15.425781 17.164062 15.449219 17.203125 15.53125 C 17.164062 15.546875 17.136719 15.53125 17.125 15.484375 C 17.105469 15.503906 17.082031 15.527344 17.0625 15.546875 C 17.035156 15.472656 17.003906 15.398438 16.96875 15.328125 C 16.949219 15.347656 16.925781 15.371094 16.90625 15.390625 C 16.894531 15.34375 16.871094 15.304688 16.828125 15.28125 C 16.867188 15.261719 16.90625 15.265625 16.9375 15.296875 C 16.949219 15.269531 16.964844 15.242188 16.984375 15.21875 C 16.972656 15.214844 16.964844 15.207031 16.953125 15.203125 C 16.910156 15.246094 16.871094 15.246094 16.828125 15.203125 C 16.746094 15.285156 16.757812 15.332031 16.859375 15.34375 C 16.789062 15.390625 16.75 15.449219 16.75 15.515625 C 16.699219 15.46875 16.6875 15.414062 16.71875 15.359375 C 16.675781 15.386719 16.628906 15.398438 16.578125 15.390625 C 16.582031 15.359375 16.578125 15.328125 16.5625 15.296875 C 16.527344 15.332031 16.488281 15.371094 16.453125 15.40625 C 16.472656 15.417969 16.496094 15.425781 16.515625 15.4375 C 16.488281 15.449219 16.464844 15.46875 16.453125 15.5 C 16.46875 15.554688 16.484375 15.550781 16.5 15.484375 C 16.519531 15.550781 16.507812 15.613281 16.46875 15.671875 C 16.449219 15.714844 16.425781 15.714844 16.40625 15.671875 C 16.398438 15.726562 16.398438 15.777344 16.40625 15.828125 C 16.324219 15.703125 16.246094 15.703125 16.171875 15.828125 C 16.085938 15.765625 16.007812 15.765625 15.9375 15.828125 C 15.960938 15.695312 15.902344 15.652344 15.765625 15.703125 C 15.738281 15.675781 15.714844 15.644531 15.703125 15.609375 C 15.714844 15.570312 15.730469 15.570312 15.75 15.609375 C 15.757812 15.5625 15.78125 15.519531 15.8125 15.484375 C 15.839844 15.519531 15.867188 15.515625 15.890625 15.46875 C 15.886719 15.425781 15.878906 15.378906 15.859375 15.328125 C 15.835938 15.390625 15.789062 15.453125 15.71875 15.515625 C 15.707031 15.46875 15.679688 15.453125 15.640625 15.46875 C 15.65625 15.480469 15.664062 15.496094 15.671875 15.515625 C 15.59375 15.558594 15.59375 15.59375 15.671875 15.625 C 15.617188 15.636719 15.605469 15.65625 15.640625 15.6875 C 15.5625 15.785156 15.484375 15.761719 15.40625 15.609375 C 15.394531 15.625 15.378906 15.632812 15.359375 15.640625 C 15.230469 15.582031 15.117188 15.503906 15.015625 15.40625 C 15.183594 15.328125 15.328125 15.25 15.453125 15.171875 C 15.980469 14.960938 16.523438 14.90625 17.078125 15.015625 Z M 17.078125 15.015625 "/>
<path style=" stroke:none;fill-rule:evenodd;fill:rgb(92.54902%,87.843138%,72.549021%);fill-opacity:1;" d="M 13.078125 14.234375 C 13.160156 14.253906 13.230469 14.289062 13.296875 14.34375 C 13.523438 14.550781 13.726562 14.773438 13.90625 15.015625 C 14.199219 15.324219 14.507812 15.617188 14.828125 15.890625 C 14.785156 15.882812 14.742188 15.867188 14.703125 15.84375 C 14.3125 15.503906 13.953125 15.136719 13.625 14.734375 C 13.457031 14.550781 13.273438 14.382812 13.078125 14.234375 Z M 13.078125 14.234375 "/>
<path style=" stroke:none;fill-rule:evenodd;fill:rgb(20%,12.156863%,2.745098%);fill-opacity:1;" d="M 14.921875 15.390625 C 14.660156 15.207031 14.421875 14.992188 14.203125 14.75 C 14.234375 14.734375 14.265625 14.71875 14.296875 14.703125 C 14.328125 14.746094 14.359375 14.746094 14.390625 14.703125 C 14.410156 14.722656 14.433594 14.746094 14.453125 14.765625 C 14.640625 14.773438 14.820312 14.765625 15 14.734375 C 15.019531 14.753906 15.042969 14.777344 15.0625 14.796875 C 15.28125 14.777344 15.488281 14.765625 15.6875 14.765625 C 15.769531 14.808594 15.863281 14.859375 15.96875 14.921875 C 16.015625 14.894531 16.0625 14.890625 16.109375 14.90625 C 16.121094 14.894531 16.128906 14.886719 16.140625 14.875 C 16.109375 14.863281 16.078125 14.855469 16.046875 14.84375 C 16.105469 14.820312 16.152344 14.835938 16.1875 14.890625 C 16.191406 14.804688 16.21875 14.789062 16.265625 14.84375 C 16.246094 14.886719 16.214844 14.917969 16.171875 14.9375 C 15.714844 14.992188 15.300781 15.144531 14.921875 15.390625 Z M 14.921875 15.390625 "/>
<path style=" stroke:none;fill-rule:evenodd;fill:rgb(95.686275%,92.156863%,77.254903%);fill-opacity:1;" d="M 12.296875 12.484375 C 12.320312 12.480469 12.339844 12.484375 12.359375 12.5 C 12.238281 12.523438 12.125 12.558594 12.015625 12.609375 C 12.445312 13.238281 13.007812 13.707031 13.703125 14.015625 C 13.691406 13.972656 13.71875 13.941406 13.78125 13.921875 C 13.773438 13.96875 13.777344 14.007812 13.796875 14.046875 C 13.925781 14.089844 14.03125 14.144531 14.109375 14.203125 C 13.390625 13.992188 12.789062 13.605469 12.296875 13.046875 C 12.183594 12.902344 12.066406 12.757812 11.953125 12.609375 C 12.046875 12.519531 12.160156 12.476562 12.296875 12.484375 Z M 12.296875 12.484375 "/>
<path style=" stroke:none;fill-rule:evenodd;fill:rgb(70.980394%,40.392157%,15.686275%);fill-opacity:1;" d="M 25.046875 21.078125 C 25.480469 21.609375 25.863281 22.171875 26.203125 22.765625 C 25.921875 22.472656 25.664062 22.160156 25.421875 21.828125 C 25.296875 21.574219 25.171875 21.324219 25.046875 21.078125 Z M 25.046875 21.078125 "/>
<path style=" stroke:none;fill-rule:evenodd;fill:rgb(11.764706%,7.843138%,0.392157%);fill-opacity:1;" d="M 5.390625 19.109375 C 5.414062 19.105469 5.433594 19.109375 5.453125 19.125 C 5.332031 19.339844 5.207031 19.554688 5.078125 19.765625 C 5.089844 19.804688 5.105469 19.804688 5.125 19.765625 C 5.128906 19.785156 5.136719 19.808594 5.140625 19.828125 C 5.109375 19.894531 5.078125 19.960938 5.046875 20.03125 C 5.113281 20.050781 5.121094 20.085938 5.0625 20.140625 C 5.042969 20.097656 5.011719 20.066406 4.96875 20.046875 C 4.949219 20.089844 4.925781 20.089844 4.90625 20.046875 C 4.867188 20.136719 4.820312 20.21875 4.765625 20.296875 C 4.894531 20.28125 5.03125 20.28125 5.171875 20.296875 C 4.734375 21.082031 4.351562 21.894531 4.03125 22.734375 C 3.785156 23.460938 3.625 24.199219 3.546875 24.953125 C 3.519531 25.210938 3.503906 25.535156 3.5 25.921875 C 3.421875 25.949219 3.371094 25.917969 3.34375 25.828125 C 3.328125 25.894531 3.296875 25.917969 3.25 25.890625 C 3.21875 26.085938 3.25 26.097656 3.34375 25.921875 C 3.359375 25.9375 3.375 25.953125 3.390625 25.96875 C 3.394531 26.023438 3.382812 26.078125 3.359375 26.140625 C 3.375 26.164062 3.398438 26.179688 3.421875 26.1875 C 3.363281 26.210938 3.316406 26.195312 3.28125 26.140625 C 3.269531 26.203125 3.261719 26.265625 3.25 26.328125 C 3.179688 25.902344 3.15625 25.476562 3.1875 25.046875 C 3.195312 25.09375 3.210938 25.132812 3.234375 25.171875 C 3.242188 25.136719 3.246094 25.097656 3.25 25.046875 C 3.285156 25.15625 3.320312 25.160156 3.359375 25.0625 C 3.28125 25.042969 3.28125 25.015625 3.359375 24.984375 C 3.320312 24.996094 3.296875 24.976562 3.28125 24.921875 C 3.253906 24.949219 3.230469 24.980469 3.21875 25.015625 C 3.195312 24.867188 3.199219 24.722656 3.234375 24.578125 C 3.21875 24.554688 3.199219 24.542969 3.171875 24.546875 C 3.269531 23.703125 3.480469 22.890625 3.8125 22.109375 C 4.046875 21.582031 4.296875 21.058594 4.5625 20.546875 C 4.847656 20.070312 5.121094 19.59375 5.390625 19.109375 Z M 5.390625 19.109375 "/>
<path style=" stroke:none;fill-rule:evenodd;fill:rgb(10.588235%,6.666667%,0%);fill-opacity:1;" d="M 23.734375 21.671875 C 24.253906 23.0625 24.574219 24.5 24.6875 25.984375 C 24.726562 26.796875 24.742188 27.609375 24.734375 28.421875 C 24.578125 28.46875 24.421875 28.519531 24.265625 28.578125 C 24.304688 27.804688 24.304688 27.023438 24.265625 26.234375 C 24.175781 24.335938 23.8125 22.492188 23.171875 20.703125 C 23.183594 20.664062 23.199219 20.664062 23.21875 20.703125 C 23.421875 21.007812 23.59375 21.332031 23.734375 21.671875 Z M 23.734375 21.671875 "/>
<path style=" stroke:none;fill-rule:evenodd;fill:rgb(95.294118%,91.37255%,75.294119%);fill-opacity:1;" d="M 13.390625 25.234375 C 13.089844 25.191406 12.796875 25.113281 12.515625 25 C 12.09375 24.824219 11.679688 24.644531 11.265625 24.453125 C 11.265625 24.441406 11.265625 24.433594 11.265625 24.421875 C 11.292969 24.261719 11.308594 24.09375 11.3125 23.921875 C 11.316406 24.101562 11.332031 24.277344 11.359375 24.453125 C 12.039062 24.789062 12.746094 25.042969 13.484375 25.21875 C 13.453125 25.234375 13.421875 25.238281 13.390625 25.234375 Z M 13.390625 25.234375 "/>
<path style=" stroke:none;fill-rule:evenodd;fill:rgb(73.333335%,43.529412%,18.039216%);fill-opacity:1;" d="M 8.984375 24.140625 C 9.570312 24.300781 10.152344 24.472656 10.734375 24.65625 C 11.429688 24.945312 12.125 25.226562 12.828125 25.5 C 13.386719 25.578125 13.917969 25.742188 14.421875 26 C 14.507812 26.042969 14.582031 26.101562 14.640625 26.171875 C 14.003906 25.945312 13.347656 25.785156 12.671875 25.6875 C 12.074219 25.519531 11.503906 25.289062 10.953125 25 C 10.285156 24.746094 9.628906 24.476562 8.984375 24.1875 C 8.945312 24.164062 8.945312 24.148438 8.984375 24.140625 Z M 8.984375 24.140625 "/>
<path style=" stroke:none;fill-rule:evenodd;fill:rgb(50.588238%,25.098041%,5.490196%);fill-opacity:1;" d="M 26.140625 27.796875 C 25.695312 28.054688 25.226562 28.261719 24.734375 28.421875 C 24.742188 27.609375 24.726562 26.796875 24.6875 25.984375 C 24.574219 24.5 24.253906 23.0625 23.734375 21.671875 C 23.746094 21.625 23.753906 21.574219 23.75 21.515625 C 23.828125 21.597656 23.882812 21.691406 23.921875 21.796875 C 23.949219 21.820312 23.980469 21.835938 24.015625 21.84375 C 23.996094 21.855469 23.972656 21.863281 23.953125 21.875 C 23.996094 21.9375 24.027344 22.007812 24.046875 22.078125 C 24.078125 22.078125 24.109375 22.078125 24.140625 22.078125 C 24.144531 22.175781 24.1875 22.253906 24.265625 22.3125 C 24.230469 22.351562 24.230469 22.394531 24.265625 22.4375 C 24.316406 22.496094 24.355469 22.558594 24.390625 22.625 C 24.378906 22.636719 24.371094 22.644531 24.359375 22.65625 C 24.453125 22.78125 24.539062 22.914062 24.625 23.046875 C 24.722656 23.261719 24.804688 23.480469 24.875 23.703125 C 25.023438 23.910156 25.152344 24.132812 25.265625 24.375 C 25.234375 24.53125 25.273438 24.664062 25.390625 24.78125 C 25.378906 24.792969 25.371094 24.800781 25.359375 24.8125 C 25.402344 24.910156 25.457031 25.003906 25.515625 25.09375 C 25.5 25.105469 25.492188 25.121094 25.484375 25.140625 C 25.523438 25.210938 25.554688 25.285156 25.578125 25.359375 C 25.546875 25.386719 25.515625 25.410156 25.484375 25.4375 C 25.515625 25.453125 25.546875 25.449219 25.578125 25.421875 C 25.613281 25.457031 25.636719 25.5 25.65625 25.546875 C 25.695312 25.691406 25.726562 25.835938 25.75 25.984375 C 25.769531 26.054688 25.804688 26.113281 25.859375 26.15625 C 25.851562 26.257812 25.851562 26.355469 25.859375 26.453125 C 25.933594 26.554688 25.953125 26.664062 25.921875 26.78125 C 26 26.871094 26.074219 26.980469 26.140625 27.109375 C 26.074219 27.125 26.027344 27.09375 26 27.015625 C 25.972656 27.097656 25.988281 27.171875 26.046875 27.234375 C 26.019531 27.261719 25.996094 27.292969 25.984375 27.328125 C 26.011719 27.398438 26.015625 27.472656 26 27.546875 C 25.929688 27.605469 25.851562 27.652344 25.765625 27.6875 C 25.785156 27.710938 25.800781 27.738281 25.8125 27.765625 C 25.863281 27.726562 25.910156 27.6875 25.953125 27.640625 C 25.96875 27.714844 25.976562 27.789062 25.984375 27.859375 C 26.035156 27.828125 26.085938 27.808594 26.140625 27.796875 Z M 26.140625 27.796875 "/>
<path style=" stroke:none;fill-rule:evenodd;fill:rgb(50.588238%,25.490198%,5.490196%);fill-opacity:1;" d="M 7.703125 13.296875 C 7.746094 14.21875 8.066406 15.03125 8.65625 15.734375 C 9.433594 16.59375 10.332031 17.285156 11.359375 17.8125 C 11.074219 17.792969 10.792969 17.734375 10.515625 17.640625 C 10.335938 17.585938 10.15625 17.523438 9.984375 17.453125 C 9.824219 17.320312 9.648438 17.242188 9.453125 17.21875 C 9.050781 17.039062 8.664062 16.824219 8.296875 16.578125 C 8.273438 16.550781 8.257812 16.519531 8.25 16.484375 C 8.210938 16.910156 8.121094 17.328125 7.984375 17.734375 C 7.953125 17.71875 7.929688 17.699219 7.90625 17.671875 C 7.890625 17.703125 7.875 17.734375 7.859375 17.765625 C 7.882812 17.804688 7.910156 17.804688 7.9375 17.765625 C 7.941406 17.90625 7.910156 18.042969 7.84375 18.171875 C 7.742188 18.300781 7.648438 18.4375 7.5625 18.578125 C 7.511719 18.605469 7.464844 18.636719 7.421875 18.671875 C 7.429688 18.691406 7.4375 18.707031 7.453125 18.71875 C 7.292969 18.746094 7.292969 18.796875 7.453125 18.875 C 7.4375 18.898438 7.414062 18.914062 7.390625 18.921875 C 7.359375 18.875 7.316406 18.859375 7.265625 18.875 C 7.296875 18.917969 7.304688 18.964844 7.28125 19.015625 C 7.261719 19.054688 7.246094 19.054688 7.234375 19.015625 C 7.261719 18.984375 7.265625 18.953125 7.25 18.921875 C 6.445312 19.722656 5.820312 20.652344 5.375 21.703125 C 5.347656 21.828125 5.292969 21.945312 5.21875 22.046875 C 5.019531 22.613281 4.867188 23.191406 4.765625 23.78125 C 4.769531 23.816406 4.777344 23.847656 4.796875 23.875 C 4.746094 23.949219 4.714844 24.03125 4.703125 24.125 C 4.703125 24.363281 4.703125 24.589844 4.703125 24.8125 C 4.722656 24.824219 4.746094 24.832031 4.765625 24.84375 C 4.71875 24.980469 4.738281 25.105469 4.828125 25.21875 C 4.835938 25.320312 4.824219 25.421875 4.796875 25.53125 C 4.824219 25.542969 4.851562 25.558594 4.875 25.578125 C 4.964844 25.882812 5.105469 26.164062 5.296875 26.421875 C 5.449219 26.585938 5.605469 26.746094 5.765625 26.90625 C 6.351562 27.269531 6.960938 27.503906 7.59375 27.609375 C 7.636719 27.652344 7.675781 27.652344 7.71875 27.609375 C 7.867188 27.699219 8.023438 27.730469 8.1875 27.703125 C 8.238281 27.730469 8.269531 27.773438 8.28125 27.828125 C 8.292969 27.800781 8.3125 27.777344 8.34375 27.765625 C 8.695312 27.835938 9.054688 27.882812 9.421875 27.90625 C 9.457031 27.9375 9.445312 27.957031 9.390625 27.96875 C 9.488281 27.960938 9.585938 27.945312 9.6875 27.921875 C 9.792969 27.933594 9.898438 27.957031 10 27.984375 C 10.03125 27.96875 10.054688 27.945312 10.078125 27.921875 C 10.089844 27.953125 10.089844 27.996094 10.078125 28.046875 C 10.214844 28.078125 10.339844 28.136719 10.453125 28.21875 C 10.574219 28.238281 10.691406 28.261719 10.796875 28.296875 C 10.792969 28.375 10.816406 28.394531 10.875 28.359375 C 11.105469 28.472656 11.339844 28.582031 11.578125 28.6875 C 11.855469 28.773438 12.136719 28.828125 12.421875 28.84375 C 12.304688 28.8125 12.316406 28.796875 12.453125 28.796875 C 12.449219 28.875 12.472656 28.894531 12.53125 28.859375 C 12.613281 28.871094 12.6875 28.902344 12.75 28.953125 C 12.824219 28.847656 12.90625 28.835938 13 28.921875 C 13.078125 28.898438 13.15625 28.878906 13.234375 28.859375 C 13.296875 28.898438 13.371094 28.917969 13.453125 28.921875 C 13.480469 28.992188 13.46875 29.058594 13.421875 29.125 C 13.4375 29.140625 13.453125 29.15625 13.46875 29.171875 C 13.492188 29.023438 13.507812 29.015625 13.515625 29.15625 C 13.511719 29.191406 13.503906 29.230469 13.5 29.265625 C 13.488281 29.246094 13.480469 29.222656 13.46875 29.203125 C 13.429688 29.238281 13.414062 29.277344 13.421875 29.328125 C 13.378906 29.332031 13.34375 29.324219 13.3125 29.296875 C 13.304688 29.34375 13.332031 29.367188 13.390625 29.359375 C 13.386719 29.457031 13.402344 29.464844 13.4375 29.390625 C 13.449219 29.445312 13.445312 29.496094 13.421875 29.546875 C 13.359375 29.667969 13.253906 29.734375 13.109375 29.75 C 12.898438 29.773438 12.691406 29.765625 12.484375 29.71875 C 12.207031 29.605469 11.925781 29.5 11.640625 29.40625 C 11.074219 29.363281 10.542969 29.207031 10.046875 28.9375 C 9.785156 28.773438 9.519531 28.609375 9.25 28.453125 C 9.234375 28.457031 9.21875 28.464844 9.203125 28.46875 C 9.246094 28.53125 9.285156 28.59375 9.328125 28.65625 C 8.578125 28.683594 7.828125 28.671875 7.078125 28.625 C 6.382812 28.554688 5.714844 28.378906 5.078125 28.09375 C 4.332031 27.765625 3.859375 27.207031 3.65625 26.421875 C 3.558594 25.9375 3.523438 25.449219 3.546875 24.953125 C 3.625 24.199219 3.785156 23.460938 4.03125 22.734375 C 4.351562 21.894531 4.734375 21.082031 5.171875 20.296875 C 5.433594 19.867188 5.691406 19.429688 5.9375 18.984375 C 6.320312 18.226562 6.539062 17.425781 6.59375 16.578125 C 6.609375 15.953125 6.613281 15.328125 6.609375 14.703125 C 6.605469 14.441406 6.609375 14.183594 6.625 13.921875 C 6.960938 13.667969 7.320312 13.460938 7.703125 13.296875 Z M 7.703125 13.296875 "/>
<path style=" stroke:none;fill-rule:evenodd;fill:rgb(93.333334%,89.019608%,74.117649%);fill-opacity:1;" d="M 13.953125 25.390625 C 13.960938 25.371094 13.976562 25.363281 14 25.359375 C 14.6875 25.585938 15.226562 26 15.609375 26.609375 C 15.191406 26.023438 14.636719 25.617188 13.953125 25.390625 Z M 13.953125 25.390625 "/>
<path style=" stroke:none;fill-rule:evenodd;fill:rgb(57.647061%,30.588236%,9.411765%);fill-opacity:1;" d="M 9.984375 17.453125 C 9.964844 17.464844 9.953125 17.488281 9.953125 17.515625 C 9.984375 17.777344 10.03125 18.039062 10.09375 18.296875 C 10.328125 19.101562 10.578125 19.90625 10.84375 20.703125 C 10.96875 21.125 11.070312 21.550781 11.15625 21.984375 C 11.246094 22.792969 11.28125 23.605469 11.265625 24.421875 C 11.265625 24.433594 11.265625 24.441406 11.265625 24.453125 C 10.886719 24.304688 10.503906 24.179688 10.109375 24.078125 C 10.195312 23.398438 10.191406 22.722656 10.09375 22.046875 C 10.082031 21.957031 10.050781 21.871094 10 21.796875 C 9.964844 22.523438 9.875 23.242188 9.734375 23.953125 C 9.195312 23.871094 8.652344 23.847656 8.109375 23.875 C 8.410156 23.941406 8.703125 24.03125 8.984375 24.140625 C 8.945312 24.148438 8.945312 24.164062 8.984375 24.1875 C 9.628906 24.476562 10.285156 24.746094 10.953125 25 C 11.503906 25.289062 12.074219 25.519531 12.671875 25.6875 C 13.347656 25.785156 14.003906 25.945312 14.640625 26.171875 C 15.371094 26.6875 15.691406 27.398438 15.59375 28.296875 C 15.550781 28.4375 15.484375 28.5625 15.390625 28.671875 C 15.253906 27.835938 14.804688 27.230469 14.046875 26.859375 C 14.035156 26.871094 14.027344 26.878906 14.015625 26.890625 C 14.378906 27.238281 14.667969 27.644531 14.875 28.109375 C 15.003906 28.417969 15.015625 28.730469 14.90625 29.046875 C 14.785156 29.261719 14.605469 29.390625 14.359375 29.4375 C 14.214844 29.453125 14.066406 29.457031 13.921875 29.453125 C 13.972656 29.054688 13.882812 28.691406 13.65625 28.359375 C 13.410156 28.007812 13.085938 27.746094 12.6875 27.578125 C 12.671875 27.582031 12.65625 27.589844 12.640625 27.59375 C 13.015625 27.90625 13.289062 28.285156 13.46875 28.734375 C 13.539062 28.9375 13.5625 29.144531 13.53125 29.359375 C 13.519531 29.4375 13.480469 29.5 13.421875 29.546875 C 13.445312 29.496094 13.449219 29.445312 13.4375 29.390625 C 13.402344 29.464844 13.386719 29.457031 13.390625 29.359375 C 13.332031 29.367188 13.304688 29.34375 13.3125 29.296875 C 13.34375 29.324219 13.378906 29.332031 13.421875 29.328125 C 13.414062 29.277344 13.429688 29.238281 13.46875 29.203125 C 13.480469 29.222656 13.488281 29.246094 13.5 29.265625 C 13.503906 29.230469 13.511719 29.191406 13.515625 29.15625 C 13.507812 29.015625 13.492188 29.023438 13.46875 29.171875 C 13.453125 29.15625 13.4375 29.140625 13.421875 29.125 C 13.46875 29.058594 13.480469 28.992188 13.453125 28.921875 C 13.371094 28.917969 13.296875 28.898438 13.234375 28.859375 C 13.15625 28.878906 13.078125 28.898438 13 28.921875 C 12.90625 28.835938 12.824219 28.847656 12.75 28.953125 C 12.6875 28.902344 12.613281 28.871094 12.53125 28.859375 C 12.472656 28.894531 12.449219 28.875 12.453125 28.796875 C 12.316406 28.796875 12.304688 28.8125 12.421875 28.84375 C 12.136719 28.828125 11.855469 28.773438 11.578125 28.6875 C 11.339844 28.582031 11.105469 28.472656 10.875 28.359375 C 10.816406 28.394531 10.792969 28.375 10.796875 28.296875 C 10.691406 28.261719 10.574219 28.238281 10.453125 28.21875 C 10.339844 28.136719 10.214844 28.078125 10.078125 28.046875 C 10.089844 27.996094 10.089844 27.953125 10.078125 27.921875 C 10.054688 27.945312 10.03125 27.96875 10 27.984375 C 9.898438 27.957031 9.792969 27.933594 9.6875 27.921875 C 9.585938 27.945312 9.488281 27.960938 9.390625 27.96875 C 9.445312 27.957031 9.457031 27.9375 9.421875 27.90625 C 9.054688 27.882812 8.695312 27.835938 8.34375 27.765625 C 8.3125 27.777344 8.292969 27.800781 8.28125 27.828125 C 8.269531 27.773438 8.238281 27.730469 8.1875 27.703125 C 8.023438 27.730469 7.867188 27.699219 7.71875 27.609375 C 7.675781 27.652344 7.636719 27.652344 7.59375 27.609375 C 6.960938 27.503906 6.351562 27.269531 5.765625 26.90625 C 5.605469 26.746094 5.449219 26.585938 5.296875 26.421875 C 5.105469 26.164062 4.964844 25.882812 4.875 25.578125 C 4.851562 25.558594 4.824219 25.542969 4.796875 25.53125 C 4.824219 25.421875 4.835938 25.320312 4.828125 25.21875 C 4.738281 25.105469 4.71875 24.980469 4.765625 24.84375 C 4.746094 24.832031 4.722656 24.824219 4.703125 24.8125 C 4.703125 24.589844 4.703125 24.363281 4.703125 24.125 C 4.714844 24.03125 4.746094 23.949219 4.796875 23.875 C 4.777344 23.847656 4.769531 23.816406 4.765625 23.78125 C 4.867188 23.191406 5.019531 22.613281 5.21875 22.046875 C 5.292969 21.945312 5.347656 21.828125 5.375 21.703125 C 5.820312 20.652344 6.445312 19.722656 7.25 18.921875 C 7.265625 18.953125 7.261719 18.984375 7.234375 19.015625 C 7.246094 19.054688 7.261719 19.054688 7.28125 19.015625 C 7.304688 18.964844 7.296875 18.917969 7.265625 18.875 C 7.316406 18.859375 7.359375 18.875 7.390625 18.921875 C 7.414062 18.914062 7.4375 18.898438 7.453125 18.875 C 7.292969 18.796875 7.292969 18.746094 7.453125 18.71875 C 7.4375 18.707031 7.429688 18.691406 7.421875 18.671875 C 7.464844 18.636719 7.511719 18.605469 7.5625 18.578125 C 7.648438 18.4375 7.742188 18.300781 7.84375 18.171875 C 7.910156 18.042969 7.941406 17.90625 7.9375 17.765625 C 7.910156 17.804688 7.882812 17.804688 7.859375 17.765625 C 7.875 17.734375 7.890625 17.703125 7.90625 17.671875 C 7.929688 17.699219 7.953125 17.71875 7.984375 17.734375 C 8.121094 17.328125 8.210938 16.910156 8.25 16.484375 C 8.257812 16.519531 8.273438 16.550781 8.296875 16.578125 C 8.664062 16.824219 9.050781 17.039062 9.453125 17.21875 C 9.648438 17.242188 9.824219 17.320312 9.984375 17.453125 Z M 9.984375 17.453125 "/>
<path style=" stroke:none;fill-rule:evenodd;fill:rgb(10.588235%,7.058824%,0.392157%);fill-opacity:1;" d="M 11.265625 24.453125 C 11.679688 24.644531 12.09375 24.824219 12.515625 25 C 12.796875 25.113281 13.089844 25.191406 13.390625 25.234375 C 13.574219 25.285156 13.761719 25.339844 13.953125 25.390625 C 14.636719 25.617188 15.191406 26.023438 15.609375 26.609375 C 15.792969 26.929688 15.921875 27.273438 16 27.640625 C 16.070312 28.074219 16 28.480469 15.78125 28.859375 C 15.582031 29.09375 15.367188 29.3125 15.140625 29.515625 C 14.707031 29.832031 14.214844 29.964844 13.671875 29.90625 C 13.535156 30.019531 13.378906 30.09375 13.203125 30.125 C 13.003906 30.144531 12.808594 30.144531 12.609375 30.125 C 12.296875 30.046875 11.996094 29.941406 11.703125 29.8125 C 11.34375 29.757812 10.992188 29.6875 10.640625 29.59375 C 10.335938 29.476562 10.03125 29.351562 9.734375 29.21875 C 8.828125 29.1875 7.921875 29.15625 7.015625 29.125 C 5.964844 29.027344 5.007812 28.683594 4.140625 28.09375 C 3.53125 27.550781 3.203125 26.867188 3.15625 26.046875 C 3.09375 25.546875 3.097656 25.046875 3.171875 24.546875 C 3.199219 24.542969 3.21875 24.554688 3.234375 24.578125 C 3.199219 24.722656 3.195312 24.867188 3.21875 25.015625 C 3.230469 24.980469 3.253906 24.949219 3.28125 24.921875 C 3.296875 24.976562 3.320312 24.996094 3.359375 24.984375 C 3.28125 25.015625 3.28125 25.042969 3.359375 25.0625 C 3.320312 25.160156 3.285156 25.15625 3.25 25.046875 C 3.246094 25.097656 3.242188 25.136719 3.234375 25.171875 C 3.210938 25.132812 3.195312 25.09375 3.1875 25.046875 C 3.15625 25.476562 3.179688 25.902344 3.25 26.328125 C 3.261719 26.265625 3.269531 26.203125 3.28125 26.140625 C 3.316406 26.195312 3.363281 26.210938 3.421875 26.1875 C 3.398438 26.179688 3.375 26.164062 3.359375 26.140625 C 3.382812 26.078125 3.394531 26.023438 3.390625 25.96875 C 3.375 25.953125 3.359375 25.9375 3.34375 25.921875 C 3.25 26.097656 3.21875 26.085938 3.25 25.890625 C 3.296875 25.917969 3.328125 25.894531 3.34375 25.828125 C 3.371094 25.917969 3.421875 25.949219 3.5 25.921875 C 3.503906 25.535156 3.519531 25.210938 3.546875 24.953125 C 3.523438 25.449219 3.558594 25.9375 3.65625 26.421875 C 3.859375 27.207031 4.332031 27.765625 5.078125 28.09375 C 5.714844 28.378906 6.382812 28.554688 7.078125 28.625 C 7.828125 28.671875 8.578125 28.683594 9.328125 28.65625 C 9.285156 28.59375 9.246094 28.53125 9.203125 28.46875 C 9.21875 28.464844 9.234375 28.457031 9.25 28.453125 C 9.519531 28.609375 9.785156 28.773438 10.046875 28.9375 C 10.542969 29.207031 11.074219 29.363281 11.640625 29.40625 C 11.925781 29.5 12.207031 29.605469 12.484375 29.71875 C 12.691406 29.765625 12.898438 29.773438 13.109375 29.75 C 13.253906 29.734375 13.359375 29.667969 13.421875 29.546875 C 13.480469 29.5 13.519531 29.4375 13.53125 29.359375 C 13.5625 29.144531 13.539062 28.9375 13.46875 28.734375 C 13.289062 28.285156 13.015625 27.90625 12.640625 27.59375 C 12.65625 27.589844 12.671875 27.582031 12.6875 27.578125 C 13.085938 27.746094 13.410156 28.007812 13.65625 28.359375 C 13.882812 28.691406 13.972656 29.054688 13.921875 29.453125 C 14.066406 29.457031 14.214844 29.453125 14.359375 29.4375 C 14.605469 29.390625 14.785156 29.261719 14.90625 29.046875 C 15.015625 28.730469 15.003906 28.417969 14.875 28.109375 C 14.667969 27.644531 14.378906 27.238281 14.015625 26.890625 C 14.027344 26.878906 14.035156 26.871094 14.046875 26.859375 C 14.804688 27.230469 15.253906 27.835938 15.390625 28.671875 C 15.484375 28.5625 15.550781 28.4375 15.59375 28.296875 C 15.691406 27.398438 15.371094 26.6875 14.640625 26.171875 C 14.582031 26.101562 14.507812 26.042969 14.421875 26 C 13.917969 25.742188 13.386719 25.578125 12.828125 25.5 C 12.125 25.226562 11.429688 24.945312 10.734375 24.65625 C 10.152344 24.472656 9.570312 24.300781 8.984375 24.140625 C 8.703125 24.03125 8.410156 23.941406 8.109375 23.875 C 8.652344 23.847656 9.195312 23.871094 9.734375 23.953125 C 9.875 23.242188 9.964844 22.523438 10 21.796875 C 10.050781 21.871094 10.082031 21.957031 10.09375 22.046875 C 10.191406 22.722656 10.195312 23.398438 10.109375 24.078125 C 10.503906 24.179688 10.886719 24.304688 11.265625 24.453125 Z M 11.265625 24.453125 "/>
</g>
</svg>
